<?xml version="1.0" encoding="UTF-8" standalone="no"?>
<!DOCTYPE svg PUBLIC "-//W3C//DTD SVG 1.1//EN"
 "http://www.w3.org/Graphics/SVG/1.1/DTD/svg11.dtd">
<!-- Generated by graphviz version 2.40.1 (20161225.0304)
 -->
<!-- Title: G Pages: 1 -->
<svg width="1829pt" height="594pt"
 viewBox="0.00 0.00 1828.56 594.39" xmlns="http://www.w3.org/2000/svg" xmlns:xlink="http://www.w3.org/1999/xlink">
<g id="graph0" class="graph" transform="scale(1 1) rotate(0) translate(4 590.3921)">
<title>G</title>
<polygon fill="#ffffff" stroke="transparent" points="-4,4 -4,-590.3921 1824.564,-590.3921 1824.564,4 -4,4"/>
<text text-anchor="middle" x="910.282" y="-7.8" font-family="Times,serif" font-size="14.00" fill="#000000">pipeline</text>
<!-- @ansible/machines -->
<g id="node1" class="node">
<title>@ansible/machines</title>
<ellipse fill="none" stroke="#000000" cx="79.9429" cy="-319.8305" rx="79.8859" ry="18"/>
<text text-anchor="middle" x="79.9429" y="-316.1305" font-family="Times,serif" font-size="14.00" fill="#000000">@ansible/machines</text>
</g>
<!-- @ansible/worker&#45;provision -->
<g id="node2" class="node">
<title>@ansible/worker&#45;provision</title>
<ellipse fill="none" stroke="#000000" cx="303.1263" cy="-488.8305" rx="107.4815" ry="18"/>
<text text-anchor="middle" x="303.1263" y="-485.1305" font-family="Times,serif" font-size="14.00" fill="#000000">@ansible/worker&#45;provision</text>
</g>
<!-- @ansible/machines&#45;&gt;@ansible/worker&#45;provision -->
<g id="edge4" class="edge">
<title>@ansible/machines&#45;&gt;@ansible/worker&#45;provision</title>
<path fill="none" stroke="#000000" d="M90.3293,-337.8427C108.1554,-367.1604 147.3831,-425.1071 195.8858,-456.8305 204.8493,-462.6931 214.925,-467.5146 225.2184,-471.4716"/>
<polygon fill="#000000" stroke="#000000" points="224.1124,-474.7932 234.707,-474.8676 226.4713,-468.2026 224.1124,-474.7932"/>
</g>
<!-- packer/source&#45;ami* -->
<g id="node5" class="node">
<title>packer/source&#45;ami*</title>
<ellipse fill="none" stroke="#000000" cx="303.1263" cy="-145.8305" rx="80.6858" ry="18"/>
<text text-anchor="middle" x="303.1263" y="-142.1305" font-family="Times,serif" font-size="14.00" fill="#000000">packer/source&#45;ami*</text>
</g>
<!-- @ansible/machines&#45;&gt;packer/source&#45;ami* -->
<g id="edge14" class="edge">
<title>@ansible/machines&#45;&gt;packer/source&#45;ami*</title>
<path fill="none" stroke="#000000" d="M89.016,-301.7571C105.7018,-270.4364 144.3261,-206.2293 195.8858,-172.8305 204.9536,-166.9566 215.2167,-162.3605 225.7115,-158.7642"/>
<polygon fill="#000000" stroke="#000000" points="226.8899,-162.0629 235.3871,-155.7346 224.7981,-155.3827 226.8899,-162.0629"/>
</g>
<!-- terraform/private -->
<g id="node10" class="node">
<title>terraform/private</title>
<ellipse fill="none" stroke="#000000" cx="1562.2837" cy="-328.8305" rx="71.4873" ry="18"/>
<text text-anchor="middle" x="1562.2837" y="-325.1305" font-family="Times,serif" font-size="14.00" fill="#000000">terraform/private</text>
</g>
<!-- @ansible/machines&#45;&gt;terraform/private -->
<g id="edge28" class="edge">
<title>@ansible/machines&#45;&gt;terraform/private</title>
<path fill="none" stroke="#000000" d="M98.6927,-337.6643C120.2748,-357.0271 157.6844,-387.1463 195.8858,-401.8305 339.9026,-457.1888 386.3185,-442.8305 540.6084,-442.8305 540.6084,-442.8305 540.6084,-442.8305 1147.7641,-442.8305 1286.2383,-442.8305 1324.4077,-436.473 1454.7901,-389.8305 1481.1891,-380.3866 1508.6433,-364.6918 1529.1983,-351.5873"/>
<polygon fill="#000000" stroke="#000000" points="1531.3667,-354.3523 1537.8445,-345.9684 1527.5523,-348.4828 1531.3667,-354.3523"/>
</g>
<!-- terraform/vault -->
<g id="node12" class="node">
<title>terraform/vault</title>
<ellipse fill="none" stroke="#000000" cx="735.8443" cy="-300.8305" rx="64.189" ry="18"/>
<text text-anchor="middle" x="735.8443" y="-297.1305" font-family="Times,serif" font-size="14.00" fill="#000000">terraform/vault</text>
</g>
<!-- @ansible/machines&#45;&gt;terraform/vault -->
<g id="edge7" class="edge">
<title>@ansible/machines&#45;&gt;terraform/vault</title>
<path fill="none" stroke="#000000" d="M154.5446,-313.1908C280.9322,-306.4973 535.6778,-299.1218 661.7327,-298.5104"/>
<polygon fill="#000000" stroke="#000000" points="662.0651,-302.0094 672.0531,-298.4751 662.0411,-295.0095 662.0651,-302.0094"/>
</g>
<!-- @ansible/machines&#45;&gt;terraform/vault -->
<g id="edge22" class="edge">
<title>@ansible/machines&#45;&gt;terraform/vault</title>
<path fill="none" stroke="#000000" d="M159.3865,-322.1211C288.4325,-321.3265 541.5588,-313.9263 664.904,-307.2746"/>
<polygon fill="#000000" stroke="#000000" points="665.2022,-310.7635 674.9932,-306.7155 664.8149,-303.7742 665.2022,-310.7635"/>
</g>
<!-- terraform/security -->
<g id="node13" class="node">
<title>terraform/security</title>
<ellipse fill="none" stroke="#000000" cx="303.1263" cy="-68.8305" rx="74.9875" ry="18"/>
<text text-anchor="middle" x="303.1263" y="-65.1305" font-family="Times,serif" font-size="14.00" fill="#000000">terraform/security</text>
</g>
<!-- @ansible/machines&#45;&gt;terraform/security -->
<g id="edge25" class="edge">
<title>@ansible/machines&#45;&gt;terraform/security</title>
<path fill="none" stroke="#000000" d="M86.0458,-301.8531C99.8845,-263.4924 137.0862,-172.7286 195.8858,-118.8305 210.7154,-105.2371 229.8922,-94.727 247.9203,-86.9303"/>
<polygon fill="#000000" stroke="#000000" points="249.3031,-90.1461 257.214,-83.0985 246.6349,-83.6745 249.3031,-90.1461"/>
</g>
<!-- terraform/dns -->
<g id="node15" class="node">
<title>terraform/dns</title>
<ellipse fill="none" stroke="#000000" cx="303.1263" cy="-374.8305" rx="59.2899" ry="18"/>
<text text-anchor="middle" x="303.1263" y="-371.1305" font-family="Times,serif" font-size="14.00" fill="#000000">terraform/dns</text>
</g>
<!-- @ansible/machines&#45;&gt;terraform/dns -->
<g id="edge8" class="edge">
<title>@ansible/machines&#45;&gt;terraform/dns</title>
<path fill="none" stroke="#000000" d="M133.9694,-333.1445C168.2551,-341.5936 212.5244,-352.5031 247.175,-361.0422"/>
<polygon fill="#000000" stroke="#000000" points="246.5893,-364.5025 257.1363,-363.497 248.2642,-357.7058 246.5893,-364.5025"/>
</g>
<!-- terraform/vault&#45;volume -->
<g id="node20" class="node">
<title>terraform/vault&#45;volume</title>
<ellipse fill="none" stroke="#000000" cx="540.6084" cy="-264.8305" rx="94.4839" ry="18"/>
<text text-anchor="middle" x="540.6084" y="-261.1305" font-family="Times,serif" font-size="14.00" fill="#000000">terraform/vault&#45;volume</text>
</g>
<!-- @ansible/machines&#45;&gt;terraform/vault&#45;volume -->
<g id="edge13" class="edge">
<title>@ansible/machines&#45;&gt;terraform/vault&#45;volume</title>
<path fill="none" stroke="#000000" d="M137.2396,-307.2461C155.8729,-303.4806 176.6945,-299.6172 195.8858,-296.8305 278.0907,-284.8939 372.0055,-276.5192 441.0287,-271.3394"/>
<polygon fill="#000000" stroke="#000000" points="441.3135,-274.828 451.0275,-270.5983 440.7961,-267.8471 441.3135,-274.828"/>
</g>
<!-- terraform/buckets -->
<g id="node3" class="node">
<title>terraform/buckets</title>
<ellipse fill="none" stroke="#000000" cx="540.6084" cy="-488.8305" rx="73.387" ry="18"/>
<text text-anchor="middle" x="540.6084" y="-485.1305" font-family="Times,serif" font-size="14.00" fill="#000000">terraform/buckets</text>
</g>
<!-- @ansible/worker&#45;provision&#45;&gt;terraform/buckets -->
<g id="edge5" class="edge">
<title>@ansible/worker&#45;provision&#45;&gt;terraform/buckets</title>
<path fill="none" stroke="#000000" d="M410.4034,-488.8305C425.9834,-488.8305 441.8291,-488.8305 456.8542,-488.8305"/>
<polygon fill="#000000" stroke="#000000" points="457.1117,-492.3306 467.1117,-488.8305 457.1117,-485.3306 457.1117,-492.3306"/>
</g>
<!-- terraform/users -->
<g id="node8" class="node">
<title>terraform/users</title>
<ellipse fill="none" stroke="#000000" cx="735.8443" cy="-488.8305" rx="64.9885" ry="18"/>
<text text-anchor="middle" x="735.8443" y="-485.1305" font-family="Times,serif" font-size="14.00" fill="#000000">terraform/users</text>
</g>
<!-- terraform/buckets&#45;&gt;terraform/users -->
<g id="edge38" class="edge">
<title>terraform/buckets&#45;&gt;terraform/users</title>
<path fill="none" stroke="#000000" d="M614.1405,-488.8305C629.2465,-488.8305 645.1732,-488.8305 660.3472,-488.8305"/>
<polygon fill="#000000" stroke="#000000" points="660.7128,-492.3306 670.7127,-488.8305 660.7127,-485.3306 660.7128,-492.3306"/>
</g>
<!-- chef/ubuntu_java -->
<g id="node4" class="node">
<title>chef/ubuntu_java</title>
<ellipse fill="none" stroke="#000000" cx="1147.7641" cy="-190.8305" rx="71.4873" ry="18"/>
<text text-anchor="middle" x="1147.7641" y="-187.1305" font-family="Times,serif" font-size="14.00" fill="#000000">chef/ubuntu_java</text>
</g>
<!-- packer/ubuntu&#45;java* -->
<g id="node6" class="node">
<title>packer/ubuntu&#45;java*</title>
<ellipse fill="none" stroke="#000000" cx="1371.5975" cy="-190.8305" rx="83.3857" ry="18"/>
<text text-anchor="middle" x="1371.5975" y="-187.1305" font-family="Times,serif" font-size="14.00" fill="#000000">packer/ubuntu&#45;java*</text>
</g>
<!-- chef/ubuntu_java&#45;&gt;packer/ubuntu&#45;java* -->
<g id="edge26" class="edge">
<title>chef/ubuntu_java&#45;&gt;packer/ubuntu&#45;java*</title>
<path fill="none" stroke="#000000" d="M1219.51,-190.8305C1238.1303,-190.8305 1258.4612,-190.8305 1278.0234,-190.8305"/>
<polygon fill="#000000" stroke="#000000" points="1278.17,-194.3306 1288.17,-190.8305 1278.17,-187.3306 1278.17,-194.3306"/>
</g>
<!-- terraform/bastion -->
<g id="node9" class="node">
<title>terraform/bastion</title>
<ellipse fill="none" stroke="#000000" cx="540.6084" cy="-102.8305" rx="72.2875" ry="18"/>
<text text-anchor="middle" x="540.6084" y="-99.1305" font-family="Times,serif" font-size="14.00" fill="#000000">terraform/bastion</text>
</g>
<!-- packer/source&#45;ami*&#45;&gt;terraform/bastion -->
<g id="edge6" class="edge">
<title>packer/source&#45;ami*&#45;&gt;terraform/bastion</title>
<path fill="none" stroke="#000000" d="M365.8326,-134.4765C398.4612,-128.5686 438.4143,-121.3344 471.8814,-115.2746"/>
<polygon fill="#000000" stroke="#000000" points="472.8279,-118.6603 482.0442,-113.4345 471.5806,-111.7723 472.8279,-118.6603"/>
</g>
<!-- packer/vault&#45;ami* -->
<g id="node11" class="node">
<title>packer/vault&#45;ami*</title>
<ellipse fill="none" stroke="#000000" cx="540.6084" cy="-156.8305" rx="75.2868" ry="18"/>
<text text-anchor="middle" x="540.6084" y="-153.1305" font-family="Times,serif" font-size="14.00" fill="#000000">packer/vault&#45;ami*</text>
</g>
<!-- packer/source&#45;ami*&#45;&gt;packer/vault&#45;ami* -->
<g id="edge18" class="edge">
<title>packer/source&#45;ami*&#45;&gt;packer/vault&#45;ami*</title>
<path fill="none" stroke="#000000" d="M382.2044,-149.4933C405.9351,-150.5925 432.0536,-151.8023 456.1193,-152.917"/>
<polygon fill="#000000" stroke="#000000" points="456.1433,-156.4218 466.2946,-153.3883 456.4672,-149.4293 456.1433,-156.4218"/>
</g>
<!-- packer/authenticated&#45;ami* -->
<g id="node17" class="node">
<title>packer/authenticated&#45;ami*</title>
<ellipse fill="none" stroke="#000000" cx="1147.7641" cy="-136.8305" rx="104.7816" ry="18"/>
<text text-anchor="middle" x="1147.7641" y="-133.1305" font-family="Times,serif" font-size="14.00" fill="#000000">packer/authenticated&#45;ami*</text>
</g>
<!-- packer/source&#45;ami*&#45;&gt;packer/authenticated&#45;ami* -->
<g id="edge34" class="edge">
<title>packer/source&#45;ami*&#45;&gt;packer/authenticated&#45;ami*</title>
<path fill="none" stroke="#000000" d="M339.6715,-129.5679C360.5524,-120.083 387.1269,-107.685 410.3668,-95.8305 426.6714,-87.5136 428.6486,-80.4217 446.3668,-75.8305 677.6354,-15.9028 964.6258,-83.0442 1087.4355,-118.1535"/>
<polygon fill="#000000" stroke="#000000" points="1086.4688,-121.5173 1097.0474,-120.9323 1088.4129,-114.7926 1086.4688,-121.5173"/>
</g>
<!-- terraform/prometheus -->
<g id="node18" class="node">
<title>terraform/prometheus</title>
<ellipse fill="none" stroke="#000000" cx="540.6084" cy="-210.8305" rx="88.2844" ry="18"/>
<text text-anchor="middle" x="540.6084" y="-207.1305" font-family="Times,serif" font-size="14.00" fill="#000000">terraform/prometheus</text>
</g>
<!-- packer/source&#45;ami*&#45;&gt;terraform/prometheus -->
<g id="edge1" class="edge">
<title>packer/source&#45;ami*&#45;&gt;terraform/prometheus</title>
<path fill="none" stroke="#000000" d="M358.0969,-159.1106C374.9177,-163.3246 393.4435,-168.1178 410.3668,-172.8305 426.4838,-177.3187 430.3246,-179.082 446.3668,-183.8305 456.8624,-186.9372 468.0323,-190.187 478.8754,-193.3119"/>
<polygon fill="#000000" stroke="#000000" points="478.135,-196.7407 488.7127,-196.1389 480.0684,-190.013 478.135,-196.7407"/>
</g>
<!-- packer/ubuntu&#45;java*&#45;&gt;terraform/private -->
<g id="edge33" class="edge">
<title>packer/ubuntu&#45;java*&#45;&gt;terraform/private</title>
<path fill="none" stroke="#000000" d="M1419.8721,-205.5525C1431.7582,-210.1982 1444.1262,-215.953 1454.7901,-222.8305 1489.0733,-244.9408 1521.4047,-279.3495 1541.4845,-302.9283"/>
<polygon fill="#000000" stroke="#000000" points="1538.9552,-305.3594 1548.0591,-310.7788 1544.3218,-300.865 1538.9552,-305.3594"/>
</g>
<!-- @terraform/vpc -->
<g id="node7" class="node">
<title>@terraform/vpc</title>
<ellipse fill="none" stroke="#000000" cx="921.981" cy="-511.8305" rx="67.6881" ry="18"/>
<text text-anchor="middle" x="921.981" y="-508.1305" font-family="Times,serif" font-size="14.00" fill="#000000">@terraform/vpc</text>
</g>
<!-- @terraform/vpc&#45;&gt;@ansible/machines -->
<g id="edge3" class="edge">
<title>@terraform/vpc&#45;&gt;@ansible/machines</title>
<path fill="none" stroke="#000000" d="M878.9954,-525.9C760.6345,-561.9021 423.6524,-645.7298 195.8858,-515.8305 132.0042,-479.3977 99.7434,-392.4304 86.8783,-347.6006"/>
<polygon fill="#000000" stroke="#000000" points="90.2466,-346.6487 84.2192,-337.9354 83.4973,-348.5056 90.2466,-346.6487"/>
</g>
<!-- terraform/users&#45;&gt;@terraform/vpc -->
<g id="edge27" class="edge">
<title>terraform/users&#45;&gt;@terraform/vpc</title>
<path fill="none" stroke="#000000" d="M795.2509,-496.1711C812.8459,-498.3452 832.2961,-500.7486 850.5674,-503.0063"/>
<polygon fill="#000000" stroke="#000000" points="850.2237,-506.4903 860.5775,-504.2432 851.0822,-499.5432 850.2237,-506.4903"/>
</g>
<!-- terraform/bastion&#45;&gt;terraform/vault -->
<g id="edge31" class="edge">
<title>terraform/bastion&#45;&gt;terraform/vault</title>
<path fill="none" stroke="#000000" d="M601.1629,-112.846C613.1344,-116.77 625.021,-122.2309 634.8501,-129.8305 683.2191,-167.2281 713.0376,-234.8646 726.7967,-272.9038"/>
<polygon fill="#000000" stroke="#000000" points="723.6511,-274.5122 730.2537,-282.7982 730.2594,-272.2034 723.6511,-274.5122"/>
</g>
<!-- terraform/services -->
<g id="node14" class="node">
<title>terraform/services</title>
<ellipse fill="none" stroke="#000000" cx="1745.1707" cy="-328.8305" rx="75.2868" ry="18"/>
<text text-anchor="middle" x="1745.1707" y="-325.1305" font-family="Times,serif" font-size="14.00" fill="#000000">terraform/services</text>
</g>
<!-- terraform/bastion&#45;&gt;terraform/services -->
<g id="edge11" class="edge">
<title>terraform/bastion&#45;&gt;terraform/services</title>
<path fill="none" stroke="#000000" d="M603.2302,-93.8898C755.7347,-74.8397 1155.7959,-41.3698 1454.7901,-163.8305 1552.939,-204.0299 1659.0805,-271.0221 1711.6835,-305.9955"/>
<polygon fill="#000000" stroke="#000000" points="1710.0051,-309.0835 1720.2635,-311.7324 1713.896,-303.2645 1710.0051,-309.0835"/>
</g>
<!-- terraform/private&#45;&gt;terraform/services -->
<g id="edge12" class="edge">
<title>terraform/private&#45;&gt;terraform/services</title>
<path fill="none" stroke="#000000" d="M1633.7784,-328.8305C1642.2033,-328.8305 1650.8656,-328.8305 1659.4602,-328.8305"/>
<polygon fill="#000000" stroke="#000000" points="1659.5001,-332.3306 1669.5001,-328.8305 1659.5,-325.3306 1659.5001,-332.3306"/>
</g>
<!-- packer/vault&#45;ami*&#45;&gt;terraform/vault -->
<g id="edge16" class="edge">
<title>packer/vault&#45;ami*&#45;&gt;terraform/vault</title>
<path fill="none" stroke="#000000" d="M599.6893,-168.0797C611.8878,-171.928 624.2389,-177.0462 634.8501,-183.8305 671.4107,-207.2058 702.0826,-247.7384 719.7158,-274.4231"/>
<polygon fill="#000000" stroke="#000000" points="716.8218,-276.3934 725.1856,-282.897 722.703,-272.5971 716.8218,-276.3934"/>
</g>
<!-- terraform/vault&#45;&gt;terraform/private -->
<g id="edge9" class="edge">
<title>terraform/vault&#45;&gt;terraform/private</title>
<path fill="none" stroke="#000000" d="M796.6817,-306.8735C809.9085,-308.0135 823.8337,-309.0815 836.8385,-309.8305 1070.0593,-323.263 1346.0095,-327.2048 1480.4435,-328.3573"/>
<polygon fill="#000000" stroke="#000000" points="1480.6303,-331.8588 1490.6589,-328.4418 1480.6883,-324.8591 1480.6303,-331.8588"/>
</g>
<!-- terraform/vault&#45;&gt;terraform/services -->
<g id="edge10" class="edge">
<title>terraform/vault&#45;&gt;terraform/services</title>
<path fill="none" stroke="#000000" d="M779.6816,-314.2314C797.2793,-319.0532 817.857,-323.9978 836.8385,-326.8305 1124.5827,-369.7724 1199.9307,-349.3845 1490.7901,-355.8305 1554.3244,-357.2385 1570.6762,-363.3687 1633.7774,-355.8305 1651.6157,-353.6995 1670.7262,-349.7135 1687.9931,-345.446"/>
<polygon fill="#000000" stroke="#000000" points="1689.0986,-348.7762 1697.923,-342.9127 1687.3681,-341.9934 1689.0986,-348.7762"/>
</g>
<!-- shell/root&#45;certificates -->
<g id="node16" class="node">
<title>shell/root&#45;certificates</title>
<ellipse fill="none" stroke="#000000" cx="921.981" cy="-282.8305" rx="85.2851" ry="18"/>
<text text-anchor="middle" x="921.981" y="-279.1305" font-family="Times,serif" font-size="14.00" fill="#000000">shell/root&#45;certificates</text>
</g>
<!-- terraform/vault&#45;&gt;shell/root&#45;certificates -->
<g id="edge30" class="edge">
<title>terraform/vault&#45;&gt;shell/root&#45;certificates</title>
<path fill="none" stroke="#000000" d="M796.7924,-294.9366C808.7559,-293.7797 821.5266,-292.5447 834.1676,-291.3223"/>
<polygon fill="#000000" stroke="#000000" points="834.643,-294.7928 844.2597,-290.3464 833.9692,-287.8253 834.643,-294.7928"/>
</g>
<!-- terraform/security&#45;&gt;terraform/bastion -->
<g id="edge23" class="edge">
<title>terraform/security&#45;&gt;terraform/bastion</title>
<path fill="none" stroke="#000000" d="M367.3924,-78.0314C398.3802,-82.4679 435.6875,-87.8091 467.73,-92.3966"/>
<polygon fill="#000000" stroke="#000000" points="467.5386,-95.9048 477.9337,-93.8574 468.5307,-88.9754 467.5386,-95.9048"/>
</g>
<!-- terraform/security&#45;&gt;terraform/private -->
<g id="edge24" class="edge">
<title>terraform/security&#45;&gt;terraform/private</title>
<path fill="none" stroke="#000000" d="M349.3774,-54.541C377.1842,-46.7032 413.4528,-37.7934 446.3668,-33.8305 529.5365,-23.8168 552.95,-16.2277 634.8501,-33.8305 829.4376,-75.6531 853.071,-158.7243 1043.1234,-217.8305 1133.3935,-245.9044 1159.8589,-236.5412 1252.4048,-255.8305 1339.41,-273.9649 1439.3735,-298.1191 1501.6901,-313.5762"/>
<polygon fill="#000000" stroke="#000000" points="1501.1899,-317.0583 1511.7389,-316.0743 1502.8787,-310.265 1501.1899,-317.0583"/>
</g>
<!-- terraform/security&#45;&gt;terraform/vault -->
<g id="edge21" class="edge">
<title>terraform/security&#45;&gt;terraform/vault</title>
<path fill="none" stroke="#000000" d="M351.1955,-55.0364C420.2397,-38.2651 548.6449,-18.7343 634.8501,-75.8305 702.6945,-120.7658 725.4673,-222.992 732.6978,-272.6768"/>
<polygon fill="#000000" stroke="#000000" points="729.2471,-273.2781 734.0501,-282.7217 736.1845,-272.3441 729.2471,-273.2781"/>
</g>
<!-- terraform/dns&#45;&gt;terraform/private -->
<g id="edge19" class="edge">
<title>terraform/dns&#45;&gt;terraform/private</title>
<path fill="none" stroke="#000000" d="M358.7121,-381.1561C440.9916,-389.9577 600.1071,-404.8305 735.8443,-404.8305 735.8443,-404.8305 735.8443,-404.8305 1147.7641,-404.8305 1278.2689,-404.8305 1428.152,-367.9342 1507.0522,-345.5575"/>
<polygon fill="#000000" stroke="#000000" points="1508.1303,-348.8895 1516.7792,-342.7701 1506.2019,-342.1603 1508.1303,-348.8895"/>
</g>
<!-- terraform/dns&#45;&gt;terraform/vault -->
<g id="edge20" class="edge">
<title>terraform/dns&#45;&gt;terraform/vault</title>
<path fill="none" stroke="#000000" d="M362.4472,-374.3966C429.5204,-372.6944 541.5364,-366.1747 634.8501,-342.8305 655.2119,-337.7366 676.818,-329.2118 694.7981,-321.1684"/>
<polygon fill="#000000" stroke="#000000" points="696.7514,-324.1232 704.383,-316.7742 693.8342,-317.7601 696.7514,-324.1232"/>
</g>
<!-- terraform/dns&#45;&gt;terraform/prometheus -->
<g id="edge37" class="edge">
<title>terraform/dns&#45;&gt;terraform/prometheus</title>
<path fill="none" stroke="#000000" d="M316.9476,-356.8495C340.3939,-327.5768 390.8563,-269.6932 446.3668,-237.8305 453.5811,-233.6895 461.4759,-230.1455 469.5282,-227.1216"/>
<polygon fill="#000000" stroke="#000000" points="470.7352,-230.4074 479.0221,-223.806 468.4272,-223.7988 470.7352,-230.4074"/>
</g>
<!-- shell/root&#45;certificates&#45;&gt;packer/authenticated&#45;ami* -->
<g id="edge32" class="edge">
<title>shell/root&#45;certificates&#45;&gt;packer/authenticated&#45;ami*</title>
<path fill="none" stroke="#000000" d="M935.1204,-264.9351C955.3464,-238.7039 996.6702,-190.0895 1043.1234,-163.8305 1050.4018,-159.7162 1058.3169,-156.2161 1066.4267,-153.2412"/>
<polygon fill="#000000" stroke="#000000" points="1067.6676,-156.5161 1076.0097,-149.9846 1065.4153,-149.8883 1067.6676,-156.5161"/>
</g>
<!-- shell/init&#45;vault -->
<g id="node21" class="node">
<title>shell/init&#45;vault</title>
<ellipse fill="none" stroke="#000000" cx="1147.7641" cy="-282.8305" rx="61.99" ry="18"/>
<text text-anchor="middle" x="1147.7641" y="-279.1305" font-family="Times,serif" font-size="14.00" fill="#000000">shell/init&#45;vault</text>
</g>
<!-- shell/root&#45;certificates&#45;&gt;shell/init&#45;vault -->
<g id="edge36" class="edge">
<title>shell/root&#45;certificates&#45;&gt;shell/init&#45;vault</title>
<path fill="none" stroke="#000000" d="M1007.3399,-282.8305C1029.8712,-282.8305 1053.9608,-282.8305 1075.7125,-282.8305"/>
<polygon fill="#000000" stroke="#000000" points="1075.8557,-286.3306 1085.8556,-282.8305 1075.8556,-279.3306 1075.8557,-286.3306"/>
</g>
<!-- packer/authenticated&#45;ami*&#45;&gt;packer/ubuntu&#45;java* -->
<g id="edge35" class="edge">
<title>packer/authenticated&#45;ami*&#45;&gt;packer/ubuntu&#45;java*</title>
<path fill="none" stroke="#000000" d="M1208.6319,-151.5149C1238.7699,-158.7857 1275.1935,-167.573 1305.9558,-174.9944"/>
<polygon fill="#000000" stroke="#000000" points="1305.1874,-178.4094 1315.7294,-177.3523 1306.8292,-171.6046 1305.1874,-178.4094"/>
</g>
<!-- ansible/worker&#45;provision -->
<g id="node19" class="node">
<title>ansible/worker&#45;provision</title>
<ellipse fill="none" stroke="#000000" cx="303.1263" cy="-199.8305" rx="98.5829" ry="18"/>
<text text-anchor="middle" x="303.1263" y="-196.1305" font-family="Times,serif" font-size="14.00" fill="#000000">ansible/worker&#45;provision</text>
</g>
<!-- ansible/worker&#45;provision&#45;&gt;terraform/bastion -->
<g id="edge29" class="edge">
<title>ansible/worker&#45;provision&#45;&gt;terraform/bastion</title>
<path fill="none" stroke="#000000" d="M376.8888,-187.8011C388.6077,-184.0787 400.2015,-179.2066 410.3668,-172.8305 431.4815,-159.5865 425.4693,-143.4146 446.3668,-129.8305 454.4158,-124.5983 463.4931,-120.361 472.7548,-116.9342"/>
<polygon fill="#000000" stroke="#000000" points="474.0927,-120.1763 482.4379,-113.6488 471.8435,-113.5475 474.0927,-120.1763"/>
</g>
<!-- ansible/worker&#45;provision&#45;&gt;packer/vault&#45;ami* -->
<g id="edge15" class="edge">
<title>ansible/worker&#45;provision&#45;&gt;packer/vault&#45;ami*</title>
<path fill="none" stroke="#000000" d="M373.4149,-187.1036C403.8896,-181.5857 439.5038,-175.1371 470.0128,-169.613"/>
<polygon fill="#000000" stroke="#000000" points="470.9325,-173.0034 480.1489,-167.7777 469.6853,-166.1154 470.9325,-173.0034"/>
</g>
<!-- ansible/worker&#45;provision&#45;&gt;terraform/prometheus -->
<g id="edge2" class="edge">
<title>ansible/worker&#45;provision&#45;&gt;terraform/prometheus</title>
<path fill="none" stroke="#000000" d="M399.0348,-204.2729C413.8871,-204.9609 429.2347,-205.6717 444.1001,-206.3603"/>
<polygon fill="#000000" stroke="#000000" points="444.1513,-209.8663 454.3025,-206.8329 444.4752,-202.8738 444.1513,-209.8663"/>
</g>
<!-- terraform/vault&#45;volume&#45;&gt;terraform/vault -->
<g id="edge17" class="edge">
<title>terraform/vault&#45;volume&#45;&gt;terraform/vault</title>
<path fill="none" stroke="#000000" d="M608.6184,-277.371C629.1416,-281.1553 651.5933,-285.2953 671.8458,-289.0297"/>
<polygon fill="#000000" stroke="#000000" points="671.4337,-292.5126 681.9026,-290.8841 672.7031,-285.6286 671.4337,-292.5126"/>
</g>
</g>
</svg>
