<?xml version="1.0" encoding="UTF-8" standalone="no"?>
<!DOCTYPE svg PUBLIC "-//W3C//DTD SVG 1.1//EN"
 "http://www.w3.org/Graphics/SVG/1.1/DTD/svg11.dtd">
<!-- Generated by graphviz version 2.40.1 (20161225.0304)
 -->
<!-- Title: G Pages: 1 -->
<svg width="2594pt" height="629pt"
 viewBox="0.00 0.00 2593.91 629.00" xmlns="http://www.w3.org/2000/svg" xmlns:xlink="http://www.w3.org/1999/xlink">
<g id="graph0" class="graph" transform="scale(1 1) rotate(0) translate(4 625)">
<title>G</title>
<polygon fill="#ffffff" stroke="transparent" points="-4,4 -4,-625 2589.9089,-625 2589.9089,4 -4,4"/>
<text text-anchor="middle" x="1292.9544" y="-7.8" font-family="Times,serif" font-size="14.00" fill="#000000">pipeline</text>
<!-- packer/source&#45;ami* -->
<g id="node1" class="node">
<title>packer/source&#45;ami*</title>
<ellipse fill="none" stroke="#000000" cx="1077.5704" cy="-369" rx="80.6858" ry="18"/>
<text text-anchor="middle" x="1077.5704" y="-365.3" font-family="Times,serif" font-size="14.00" fill="#000000">packer/source&#45;ami*</text>
</g>
<!-- terraform/bastion -->
<g id="node2" class="node">
<title>terraform/bastion</title>
<ellipse fill="none" stroke="#000000" cx="1296.2042" cy="-499" rx="72.2875" ry="18"/>
<text text-anchor="middle" x="1296.2042" y="-495.3" font-family="Times,serif" font-size="14.00" fill="#000000">terraform/bastion</text>
</g>
<!-- packer/source&#45;ami*&#45;&gt;terraform/bastion -->
<g id="edge1" class="edge">
<title>packer/source&#45;ami*&#45;&gt;terraform/bastion</title>
<path fill="none" stroke="#000000" d="M1129.2837,-383.0485C1143.4841,-387.8356 1158.6003,-393.8285 1171.812,-401 1173.1247,-401.7126 1230.0226,-446.6537 1266.4035,-475.4228"/>
<polygon fill="#000000" stroke="#000000" points="1264.2584,-478.1886 1274.2731,-481.6466 1268.6007,-472.6981 1264.2584,-478.1886"/>
</g>
<!-- packer/vault&#45;ami* -->
<g id="node3" class="node">
<title>packer/vault&#45;ami*</title>
<ellipse fill="none" stroke="#000000" cx="1296.2042" cy="-369" rx="75.2868" ry="18"/>
<text text-anchor="middle" x="1296.2042" y="-365.3" font-family="Times,serif" font-size="14.00" fill="#000000">packer/vault&#45;ami*</text>
</g>
<!-- packer/source&#45;ami*&#45;&gt;packer/vault&#45;ami* -->
<g id="edge2" class="edge">
<title>packer/source&#45;ami*&#45;&gt;packer/vault&#45;ami*</title>
<path fill="none" stroke="#000000" d="M1158.3603,-369C1175.183,-369 1192.9748,-369 1209.9848,-369"/>
<polygon fill="#000000" stroke="#000000" points="1210.4592,-372.5001 1220.4592,-369 1210.4592,-365.5001 1210.4592,-372.5001"/>
</g>
<!-- packer/authenticated&#45;ami* -->
<g id="node19" class="node">
<title>packer/authenticated&#45;ami*</title>
<ellipse fill="none" stroke="#000000" cx="1913.109" cy="-376" rx="104.7816" ry="18"/>
<text text-anchor="middle" x="1913.109" y="-372.3" font-family="Times,serif" font-size="14.00" fill="#000000">packer/authenticated&#45;ami*</text>
</g>
<!-- packer/source&#45;ami*&#45;&gt;packer/authenticated&#45;ami* -->
<g id="edge43" class="edge">
<title>packer/source&#45;ami*&#45;&gt;packer/authenticated&#45;ami*</title>
<path fill="none" stroke="#000000" d="M1130.7313,-382.585C1154.1899,-387.9124 1182.1986,-393.373 1207.812,-396 1319.9901,-407.5053 1635.6209,-392.1167 1804.0371,-382.5671"/>
<polygon fill="#000000" stroke="#000000" points="1804.3867,-386.0529 1814.1713,-381.9894 1803.9883,-379.0643 1804.3867,-386.0529"/>
</g>
<!-- terraform/prometheus -->
<g id="node20" class="node">
<title>terraform/prometheus</title>
<ellipse fill="none" stroke="#000000" cx="1296.2042" cy="-315" rx="88.2844" ry="18"/>
<text text-anchor="middle" x="1296.2042" y="-311.3" font-family="Times,serif" font-size="14.00" fill="#000000">terraform/prometheus</text>
</g>
<!-- packer/source&#45;ami*&#45;&gt;terraform/prometheus -->
<g id="edge47" class="edge">
<title>packer/source&#45;ami*&#45;&gt;terraform/prometheus</title>
<path fill="none" stroke="#000000" d="M1131.8956,-355.5823C1161.566,-348.2541 1198.5445,-339.1208 1229.9039,-331.3754"/>
<polygon fill="#000000" stroke="#000000" points="1231.0027,-334.7093 1239.8717,-328.9135 1229.3241,-327.9135 1231.0027,-334.7093"/>
</g>
<!-- terraform/vault -->
<g id="node6" class="node">
<title>terraform/vault</title>
<ellipse fill="none" stroke="#000000" cx="1484.9406" cy="-273" rx="64.189" ry="18"/>
<text text-anchor="middle" x="1484.9406" y="-269.3" font-family="Times,serif" font-size="14.00" fill="#000000">terraform/vault</text>
</g>
<!-- terraform/bastion&#45;&gt;terraform/vault -->
<g id="edge38" class="edge">
<title>terraform/bastion&#45;&gt;terraform/vault</title>
<path fill="none" stroke="#000000" d="M1349.7206,-486.8092C1362.164,-482.1266 1374.6612,-475.7208 1384.5963,-467 1398.3507,-454.9268 1448.427,-350.7326 1472.22,-300.2263"/>
<polygon fill="#000000" stroke="#000000" points="1475.3908,-301.7082 1476.476,-291.1691 1469.0554,-298.7311 1475.3908,-301.7082"/>
</g>
<!-- terraform/services -->
<g id="node13" class="node">
<title>terraform/services</title>
<ellipse fill="none" stroke="#000000" cx="2510.5156" cy="-298" rx="75.2868" ry="18"/>
<text text-anchor="middle" x="2510.5156" y="-294.3" font-family="Times,serif" font-size="14.00" fill="#000000">terraform/services</text>
</g>
<!-- terraform/bastion&#45;&gt;terraform/services -->
<g id="edge24" class="edge">
<title>terraform/bastion&#45;&gt;terraform/services</title>
<path fill="none" stroke="#000000" d="M1339.3787,-513.5949C1439.148,-545.9776 1693.9386,-621 1913.109,-621 1913.109,-621 1913.109,-621 2136.9423,-621 2317.0062,-621 2453.0523,-403.6128 2496.1158,-325.5192"/>
<polygon fill="#000000" stroke="#000000" points="2499.4304,-326.7494 2501.1271,-316.2913 2493.279,-323.4088 2499.4304,-326.7494"/>
</g>
<!-- @shell/root&#45;certificates -->
<g id="node17" class="node">
<title>@shell/root&#45;certificates</title>
<ellipse fill="none" stroke="#000000" cx="1678.8766" cy="-423" rx="93.6835" ry="18"/>
<text text-anchor="middle" x="1678.8766" y="-419.3" font-family="Times,serif" font-size="14.00" fill="#000000">@shell/root&#45;certificates</text>
</g>
<!-- terraform/bastion&#45;&gt;@shell/root&#45;certificates -->
<g id="edge36" class="edge">
<title>terraform/bastion&#45;&gt;@shell/root&#45;certificates</title>
<path fill="none" stroke="#000000" d="M1337.6665,-484.093C1372.1615,-471.7293 1416.3045,-456.0123 1420.5963,-455 1472.7377,-442.7019 1531.9837,-434.9313 1580.5685,-430.1324"/>
<polygon fill="#000000" stroke="#000000" points="1581.1482,-433.5929 1590.7678,-429.1529 1580.479,-426.625 1581.1482,-433.5929"/>
</g>
<!-- @shell/init&#45;vault -->
<g id="node18" class="node">
<title>@shell/init&#45;vault</title>
<ellipse fill="none" stroke="#000000" cx="1913.109" cy="-430" rx="70.3881" ry="18"/>
<text text-anchor="middle" x="1913.109" y="-426.3" font-family="Times,serif" font-size="14.00" fill="#000000">@shell/init&#45;vault</text>
</g>
<!-- terraform/bastion&#45;&gt;@shell/init&#45;vault -->
<g id="edge39" class="edge">
<title>terraform/bastion&#45;&gt;@shell/init&#45;vault</title>
<path fill="none" stroke="#000000" d="M1364.1244,-492.8465C1456.6041,-484.2775 1627.2604,-467.7878 1772.4683,-450 1795.2887,-447.2045 1820.1387,-443.7929 1842.5141,-440.5845"/>
<polygon fill="#000000" stroke="#000000" points="1843.2072,-444.0208 1852.6044,-439.1277 1842.2068,-437.0927 1843.2072,-444.0208"/>
</g>
<!-- packer/vault&#45;ami*&#45;&gt;terraform/vault -->
<g id="edge20" class="edge">
<title>packer/vault&#45;ami*&#45;&gt;terraform/vault</title>
<path fill="none" stroke="#000000" d="M1348.6292,-355.8784C1360.7141,-352.0678 1373.3234,-347.4373 1384.5963,-342 1410.3077,-329.5985 1436.8106,-311.0847 1456.118,-296.3559"/>
<polygon fill="#000000" stroke="#000000" points="1458.4318,-298.9908 1464.1908,-290.0978 1454.143,-293.4584 1458.4318,-298.9908"/>
</g>
<!-- @ansible/worker&#45;provision -->
<g id="node4" class="node">
<title>@ansible/worker&#45;provision</title>
<ellipse fill="none" stroke="#000000" cx="657.2013" cy="-346" rx="107.4815" ry="18"/>
<text text-anchor="middle" x="657.2013" y="-342.3" font-family="Times,serif" font-size="14.00" fill="#000000">@ansible/worker&#45;provision</text>
</g>
<!-- @ansible/worker&#45;provision&#45;&gt;packer/source&#45;ami* -->
<g id="edge3" class="edge">
<title>@ansible/worker&#45;provision&#45;&gt;packer/source&#45;ami*</title>
<path fill="none" stroke="#000000" d="M759.2291,-351.5823C829.4964,-355.4269 921.9312,-360.4844 989.083,-364.1585"/>
<polygon fill="#000000" stroke="#000000" points="989.0421,-367.6614 999.2184,-364.7131 989.4246,-360.6719 989.0421,-367.6614"/>
</g>
<!-- @ansible/worker&#45;provision&#45;&gt;terraform/bastion -->
<g id="edge4" class="edge">
<title>@ansible/worker&#45;provision&#45;&gt;terraform/bastion</title>
<path fill="none" stroke="#000000" d="M668.4036,-364.0436C689.6928,-396.6209 739.3694,-464.8541 800.4418,-497 942.7819,-571.9219 1141.5079,-538.52 1238.4356,-515.0239"/>
<polygon fill="#000000" stroke="#000000" points="1239.4713,-518.3732 1248.3367,-512.5718 1237.7885,-511.5784 1239.4713,-518.3732"/>
</g>
<!-- @ansible/worker&#45;provision&#45;&gt;packer/vault&#45;ami* -->
<g id="edge5" class="edge">
<title>@ansible/worker&#45;provision&#45;&gt;packer/vault&#45;ami*</title>
<path fill="none" stroke="#000000" d="M721.0233,-360.5702C818.3289,-380.8923 1009.5988,-413.402 1171.812,-396 1192.8645,-393.7415 1215.5829,-389.3915 1235.7712,-384.832"/>
<polygon fill="#000000" stroke="#000000" points="1236.817,-388.1824 1245.7667,-382.5121 1235.2343,-381.3636 1236.817,-388.1824"/>
</g>
<!-- terraform/buckets -->
<g id="node5" class="node">
<title>terraform/buckets</title>
<ellipse fill="none" stroke="#000000" cx="873.8852" cy="-323" rx="73.387" ry="18"/>
<text text-anchor="middle" x="873.8852" y="-319.3" font-family="Times,serif" font-size="14.00" fill="#000000">terraform/buckets</text>
</g>
<!-- @ansible/worker&#45;provision&#45;&gt;terraform/buckets -->
<g id="edge6" class="edge">
<title>@ansible/worker&#45;provision&#45;&gt;terraform/buckets</title>
<path fill="none" stroke="#000000" d="M747.8393,-336.3792C763.9166,-334.6727 780.5286,-332.9094 796.2069,-331.2452"/>
<polygon fill="#000000" stroke="#000000" points="796.7853,-334.7035 806.36,-330.1675 796.0464,-327.7427 796.7853,-334.7035"/>
</g>
<!-- @ansible/worker&#45;provision&#45;&gt;terraform/vault -->
<g id="edge7" class="edge">
<title>@ansible/worker&#45;provision&#45;&gt;terraform/vault</title>
<path fill="none" stroke="#000000" d="M667.1318,-327.9692C688.463,-296.5878 741.5295,-233.539 800.4418,-200 873.7749,-158.2512 899.7233,-160.4389 983.3287,-149 1160.9889,-124.6925 1220.2792,-119.2093 1384.5963,-191 1415.6178,-204.5534 1446.3639,-228.9734 1465.4842,-247.8942"/>
<polygon fill="#000000" stroke="#000000" points="1462.9881,-250.3478 1472.4574,-255.1001 1468.0185,-245.4799 1462.9881,-250.3478"/>
</g>
<!-- @ansible/worker&#45;provision&#45;&gt;terraform/vault -->
<g id="edge31" class="edge">
<title>@ansible/worker&#45;provision&#45;&gt;terraform/vault</title>
<path fill="none" stroke="#000000" d="M675.8597,-328.1282C700.9338,-300.268 748.4076,-247.6233 800.4418,-218 873.7749,-176.2512 899.7233,-178.4389 983.3287,-167 1160.9889,-142.6925 1220.2792,-137.2093 1384.5963,-209 1408.3922,-219.3965 1432.0261,-236.187 1450.3748,-250.1057"/>
<polygon fill="#000000" stroke="#000000" points="1448.3483,-252.9622 1458.415,-256.2654 1452.6054,-247.4054 1448.3483,-252.9622"/>
</g>
<!-- terraform/dns -->
<g id="node7" class="node">
<title>terraform/dns</title>
<ellipse fill="none" stroke="#000000" cx="1077.5704" cy="-239" rx="59.2899" ry="18"/>
<text text-anchor="middle" x="1077.5704" y="-235.3" font-family="Times,serif" font-size="14.00" fill="#000000">terraform/dns</text>
</g>
<!-- @ansible/worker&#45;provision&#45;&gt;terraform/dns -->
<g id="edge8" class="edge">
<title>@ansible/worker&#45;provision&#45;&gt;terraform/dns</title>
<path fill="none" stroke="#000000" d="M699.9798,-329.3904C728.2058,-318.8493 766.1653,-305.4622 800.4418,-296 873.4721,-275.8397 959.0998,-259.2813 1015.6348,-249.3027"/>
<polygon fill="#000000" stroke="#000000" points="1016.2476,-252.7488 1025.4945,-247.5772 1015.0408,-245.8536 1016.2476,-252.7488"/>
</g>
<!-- terraform/vault&#45;volume -->
<g id="node8" class="node">
<title>terraform/vault&#45;volume</title>
<ellipse fill="none" stroke="#000000" cx="1077.5704" cy="-185" rx="94.4839" ry="18"/>
<text text-anchor="middle" x="1077.5704" y="-181.3" font-family="Times,serif" font-size="14.00" fill="#000000">terraform/vault&#45;volume</text>
</g>
<!-- @ansible/worker&#45;provision&#45;&gt;terraform/vault&#45;volume -->
<g id="edge9" class="edge">
<title>@ansible/worker&#45;provision&#45;&gt;terraform/vault&#45;volume</title>
<path fill="none" stroke="#000000" d="M680.8529,-328.4382C708.3266,-308.7782 755.6291,-277.1706 800.4418,-258 864.7396,-230.4938 941.9766,-211.1855 998.5599,-199.3651"/>
<polygon fill="#000000" stroke="#000000" points="999.4312,-202.7592 1008.5213,-197.3168 998.0212,-195.9027 999.4312,-202.7592"/>
</g>
<!-- terraform/security -->
<g id="node9" class="node">
<title>terraform/security</title>
<ellipse fill="none" stroke="#000000" cx="1077.5704" cy="-499" rx="74.9875" ry="18"/>
<text text-anchor="middle" x="1077.5704" y="-495.3" font-family="Times,serif" font-size="14.00" fill="#000000">terraform/security</text>
</g>
<!-- @ansible/worker&#45;provision&#45;&gt;terraform/security -->
<g id="edge10" class="edge">
<title>@ansible/worker&#45;provision&#45;&gt;terraform/security</title>
<path fill="none" stroke="#000000" d="M672.1627,-364.1371C696.0621,-391.6824 745.7638,-443.3525 800.4418,-467 861.5623,-493.4338 936.9702,-500.7039 993.6872,-501.7703"/>
<polygon fill="#000000" stroke="#000000" points="993.6501,-505.27 1003.694,-501.898 993.7396,-498.2705 993.6501,-505.27"/>
</g>
<!-- terraform/private -->
<g id="node10" class="node">
<title>terraform/private</title>
<ellipse fill="none" stroke="#000000" cx="2327.6286" cy="-298" rx="71.4873" ry="18"/>
<text text-anchor="middle" x="2327.6286" y="-294.3" font-family="Times,serif" font-size="14.00" fill="#000000">terraform/private</text>
</g>
<!-- @ansible/worker&#45;provision&#45;&gt;terraform/private -->
<g id="edge11" class="edge">
<title>@ansible/worker&#45;provision&#45;&gt;terraform/private</title>
<path fill="none" stroke="#000000" d="M665.4605,-364.1267C683.7898,-402.12 731.7442,-490.0444 800.4418,-532 907.322,-597.2749 952.3338,-583 1077.5704,-583 1077.5704,-583 1077.5704,-583 1913.109,-583 2058.3607,-583 2110.2177,-565.9539 2220.1349,-471 2267.5425,-430.0462 2300.8162,-362.9192 2316.8132,-325.4607"/>
<polygon fill="#000000" stroke="#000000" points="2320.0692,-326.7462 2320.6856,-316.1693 2313.6079,-324.0533 2320.0692,-326.7462"/>
</g>
<!-- terraform/buckets&#45;&gt;packer/source&#45;ami* -->
<g id="edge12" class="edge">
<title>terraform/buckets&#45;&gt;packer/source&#45;ami*</title>
<path fill="none" stroke="#000000" d="M927.9344,-335.2064C953.3293,-340.9415 983.8517,-347.8347 1010.6881,-353.8954"/>
<polygon fill="#000000" stroke="#000000" points="1010.2491,-357.3843 1020.7745,-356.1733 1011.7912,-350.5563 1010.2491,-357.3843"/>
</g>
<!-- terraform/buckets&#45;&gt;terraform/bastion -->
<g id="edge13" class="edge">
<title>terraform/buckets&#45;&gt;terraform/bastion</title>
<path fill="none" stroke="#000000" d="M895.8641,-340.2649C917.2305,-356.4021 951.0895,-380.3018 983.3287,-396 1066.5398,-436.5178 1169.5866,-466.9713 1234.1321,-483.892"/>
<polygon fill="#000000" stroke="#000000" points="1233.5932,-487.368 1244.1517,-486.4909 1235.3508,-480.5922 1233.5932,-487.368"/>
</g>
<!-- terraform/buckets&#45;&gt;packer/vault&#45;ami* -->
<g id="edge14" class="edge">
<title>terraform/buckets&#45;&gt;packer/vault&#45;ami*</title>
<path fill="none" stroke="#000000" d="M947.0447,-324.6077C1007.5445,-326.6691 1095.586,-331.3581 1171.812,-342 1192.3139,-344.8623 1214.4671,-349.245 1234.3182,-353.6521"/>
<polygon fill="#000000" stroke="#000000" points="1233.6375,-357.0865 1244.1635,-355.8808 1235.183,-350.2593 1233.6375,-357.0865"/>
</g>
<!-- terraform/buckets&#45;&gt;terraform/vault -->
<g id="edge15" class="edge">
<title>terraform/buckets&#45;&gt;terraform/vault</title>
<path fill="none" stroke="#000000" d="M940.0036,-315.0775C1007.3072,-307.2467 1114.6939,-295.3954 1207.812,-288 1276.5425,-282.5415 1355.0228,-278.4986 1410.8795,-275.9942"/>
<polygon fill="#000000" stroke="#000000" points="1411.2031,-279.4834 1421.0385,-275.5445 1410.8935,-272.4903 1411.2031,-279.4834"/>
</g>
<!-- terraform/buckets&#45;&gt;terraform/dns -->
<g id="edge16" class="edge">
<title>terraform/buckets&#45;&gt;terraform/dns</title>
<path fill="none" stroke="#000000" d="M906.0085,-306.5247C927.5875,-295.7598 956.8185,-281.7563 983.3287,-271 997.1183,-265.405 1012.296,-259.9528 1026.3672,-255.1805"/>
<polygon fill="#000000" stroke="#000000" points="1027.5277,-258.483 1035.9012,-251.9918 1025.3074,-251.8444 1027.5277,-258.483"/>
</g>
<!-- terraform/buckets&#45;&gt;terraform/vault&#45;volume -->
<g id="edge17" class="edge">
<title>terraform/buckets&#45;&gt;terraform/vault&#45;volume</title>
<path fill="none" stroke="#000000" d="M886.6381,-305.2141C905.1755,-280.6489 941.9065,-236.5905 983.3287,-212 989.9145,-208.0903 997.0969,-204.7209 1004.4627,-201.8225"/>
<polygon fill="#000000" stroke="#000000" points="1005.6626,-205.1105 1013.8598,-198.398 1003.2658,-198.5336 1005.6626,-205.1105"/>
</g>
<!-- terraform/buckets&#45;&gt;terraform/security -->
<g id="edge18" class="edge">
<title>terraform/buckets&#45;&gt;terraform/security</title>
<path fill="none" stroke="#000000" d="M890.6677,-340.613C911.6037,-362.2594 948.8541,-399.7177 983.3287,-429 1002.9074,-445.6298 1026.0514,-462.8525 1044.5041,-476.0532"/>
<polygon fill="#000000" stroke="#000000" points="1042.7055,-479.0686 1052.8855,-482.0041 1046.758,-473.3609 1042.7055,-479.0686"/>
</g>
<!-- terraform/buckets&#45;&gt;terraform/private -->
<g id="edge19" class="edge">
<title>terraform/buckets&#45;&gt;terraform/private</title>
<path fill="none" stroke="#000000" d="M880.3743,-304.896C893.7792,-270.2858 927.9879,-194.8997 983.3287,-158 1172.2521,-32.0312 1257.8719,-61 1484.9406,-61 1484.9406,-61 1484.9406,-61 1913.109,-61 2058.209,-61 2100.8478,-89.3889 2220.1349,-172 2258.956,-198.8851 2292.2063,-243.1295 2311.057,-271.3967"/>
<polygon fill="#000000" stroke="#000000" points="2308.2597,-273.5144 2316.6602,-279.9707 2314.1194,-269.685 2308.2597,-273.5144"/>
</g>
<!-- terraform/vault&#45;&gt;terraform/private -->
<g id="edge23" class="edge">
<title>terraform/vault&#45;&gt;terraform/private</title>
<path fill="none" stroke="#000000" d="M1549.368,-274.3351C1677.2657,-277.0778 1972.2749,-283.865 2220.1349,-293 2228.8841,-293.3225 2238.0323,-293.6944 2247.1401,-294.0869"/>
<polygon fill="#000000" stroke="#000000" points="2247.2385,-297.5945 2257.3826,-294.5373 2247.5461,-290.6013 2247.2385,-297.5945"/>
</g>
<!-- terraform/vault&#45;&gt;terraform/services -->
<g id="edge25" class="edge">
<title>terraform/vault&#45;&gt;terraform/services</title>
<path fill="none" stroke="#000000" d="M1500.492,-255.4205C1552.6458,-198.5152 1728.4712,-23 1913.109,-23 1913.109,-23 1913.109,-23 2136.9423,-23 2303.4217,-23 2444.6263,-202.3133 2492.8221,-271.3507"/>
<polygon fill="#000000" stroke="#000000" points="2490.1924,-273.7033 2498.7452,-279.9565 2495.9587,-269.7346 2490.1924,-273.7033"/>
</g>
<!-- terraform/vault&#45;&gt;@shell/root&#45;certificates -->
<g id="edge37" class="edge">
<title>terraform/vault&#45;&gt;@shell/root&#45;certificates</title>
<path fill="none" stroke="#000000" d="M1507.1875,-290.2069C1541.9271,-317.0763 1609.1322,-369.0561 1648.366,-399.4015"/>
<polygon fill="#000000" stroke="#000000" points="1646.2403,-402.1822 1656.2917,-405.5317 1650.523,-396.6451 1646.2403,-402.1822"/>
</g>
<!-- terraform/vault&#45;&gt;@shell/init&#45;vault -->
<g id="edge40" class="edge">
<title>terraform/vault&#45;&gt;@shell/init&#45;vault</title>
<path fill="none" stroke="#000000" d="M1518.8741,-288.3359C1577.2068,-314.3118 1700.6348,-367.5884 1808.4683,-403 1822.0231,-407.4513 1836.7582,-411.6405 1850.7762,-415.3305"/>
<polygon fill="#000000" stroke="#000000" points="1850.2723,-418.8151 1860.8297,-417.9258 1852.022,-412.0373 1850.2723,-418.8151"/>
</g>
<!-- terraform/dns&#45;&gt;terraform/vault -->
<g id="edge29" class="edge">
<title>terraform/dns&#45;&gt;terraform/vault</title>
<path fill="none" stroke="#000000" d="M1136.8991,-239.8886C1198.874,-241.3319 1298.8296,-245.1122 1384.5963,-255 1397.0133,-256.4315 1410.2157,-258.443 1422.8253,-260.6056"/>
<polygon fill="#000000" stroke="#000000" points="1422.3283,-264.0719 1432.7846,-262.3642 1423.5456,-257.1786 1422.3283,-264.0719"/>
</g>
<!-- terraform/dns&#45;&gt;terraform/private -->
<g id="edge28" class="edge">
<title>terraform/dns&#45;&gt;terraform/private</title>
<path fill="none" stroke="#000000" d="M1122.8978,-227.2317C1213.4884,-204.1137 1414.2632,-155 1484.9406,-155 1484.9406,-155 1484.9406,-155 1913.109,-155 2059.9139,-155 2220.7623,-236.1444 2291.1932,-276.1829"/>
<polygon fill="#000000" stroke="#000000" points="2289.7095,-279.3671 2300.1235,-281.3162 2293.198,-273.2982 2289.7095,-279.3671"/>
</g>
<!-- terraform/dns&#45;&gt;terraform/prometheus -->
<g id="edge46" class="edge">
<title>terraform/dns&#45;&gt;terraform/prometheus</title>
<path fill="none" stroke="#000000" d="M1116.6577,-252.5873C1151.5326,-264.7102 1202.9449,-282.5818 1241.8269,-296.0977"/>
<polygon fill="#000000" stroke="#000000" points="1240.8297,-299.4565 1251.4245,-299.434 1243.1281,-292.8446 1240.8297,-299.4565"/>
</g>
<!-- terraform/vault&#45;volume&#45;&gt;terraform/vault -->
<g id="edge27" class="edge">
<title>terraform/vault&#45;volume&#45;&gt;terraform/vault</title>
<path fill="none" stroke="#000000" d="M1156.247,-194.9412C1218.7262,-203.7061 1308.0113,-218.1775 1384.5963,-238 1402.2151,-242.5603 1421.1542,-248.8026 1437.7803,-254.7538"/>
<polygon fill="#000000" stroke="#000000" points="1436.6808,-258.0781 1447.2748,-258.2091 1439.0747,-251.5002 1436.6808,-258.0781"/>
</g>
<!-- terraform/security&#45;&gt;terraform/bastion -->
<g id="edge32" class="edge">
<title>terraform/security&#45;&gt;terraform/bastion</title>
<path fill="none" stroke="#000000" d="M1152.5058,-499C1172.2806,-499 1193.7265,-499 1213.8688,-499"/>
<polygon fill="#000000" stroke="#000000" points="1213.9519,-502.5001 1223.9519,-499 1213.9519,-495.5001 1213.9519,-502.5001"/>
</g>
<!-- terraform/security&#45;&gt;terraform/vault -->
<g id="edge30" class="edge">
<title>terraform/security&#45;&gt;terraform/vault</title>
<path fill="none" stroke="#000000" d="M1128.2181,-485.705C1203.9544,-465.2127 1342.344,-425.2228 1384.5963,-396 1421.4549,-370.5076 1451.9764,-327.7704 1469.339,-299.9833"/>
<polygon fill="#000000" stroke="#000000" points="1472.4901,-301.5386 1474.7129,-291.1796 1466.5153,-297.8915 1472.4901,-301.5386"/>
</g>
<!-- terraform/security&#45;&gt;terraform/private -->
<g id="edge33" class="edge">
<title>terraform/security&#45;&gt;terraform/private</title>
<path fill="none" stroke="#000000" d="M1130.8316,-511.7487C1154.3083,-516.9247 1182.3035,-522.4981 1207.812,-526 1330.1222,-542.7914 1361.4832,-545 1484.9406,-545 1484.9406,-545 1484.9406,-545 1913.109,-545 2085.0294,-545 2247.6982,-386.2669 2305.4648,-323.2977"/>
<polygon fill="#000000" stroke="#000000" points="2308.1711,-325.5235 2312.2936,-315.7636 2302.9845,-320.8225 2308.1711,-325.5235"/>
</g>
<!-- terraform/private&#45;&gt;terraform/services -->
<g id="edge26" class="edge">
<title>terraform/private&#45;&gt;terraform/services</title>
<path fill="none" stroke="#000000" d="M2399.1232,-298C2407.5481,-298 2416.2105,-298 2424.8051,-298"/>
<polygon fill="#000000" stroke="#000000" points="2424.845,-301.5001 2434.8449,-298 2424.8449,-294.5001 2424.845,-301.5001"/>
</g>
<!-- @terraform/vpc -->
<g id="node11" class="node">
<title>@terraform/vpc</title>
<ellipse fill="none" stroke="#000000" cx="250.481" cy="-346" rx="67.6881" ry="18"/>
<text text-anchor="middle" x="250.481" y="-342.3" font-family="Times,serif" font-size="14.00" fill="#000000">@terraform/vpc</text>
</g>
<!-- @ansible/machines -->
<g id="node12" class="node">
<title>@ansible/machines</title>
<ellipse fill="none" stroke="#000000" cx="434.0179" cy="-346" rx="79.8859" ry="18"/>
<text text-anchor="middle" x="434.0179" y="-342.3" font-family="Times,serif" font-size="14.00" fill="#000000">@ansible/machines</text>
</g>
<!-- @terraform/vpc&#45;&gt;@ansible/machines -->
<g id="edge21" class="edge">
<title>@terraform/vpc&#45;&gt;@ansible/machines</title>
<path fill="none" stroke="#000000" d="M318.3019,-346C326.6689,-346 335.3215,-346 343.954,-346"/>
<polygon fill="#000000" stroke="#000000" points="344.0603,-349.5001 354.0603,-346 344.0602,-342.5001 344.0603,-349.5001"/>
</g>
<!-- @ansible/machines&#45;&gt;@ansible/worker&#45;provision -->
<g id="edge22" class="edge">
<title>@ansible/machines&#45;&gt;@ansible/worker&#45;provision</title>
<path fill="none" stroke="#000000" d="M513.9618,-346C522.3225,-346 530.9416,-346 539.6091,-346"/>
<polygon fill="#000000" stroke="#000000" points="539.7937,-349.5001 549.7936,-346 539.7936,-342.5001 539.7937,-349.5001"/>
</g>
<!-- chef/ubuntu_java -->
<g id="node14" class="node">
<title>chef/ubuntu_java</title>
<ellipse fill="none" stroke="#000000" cx="1913.109" cy="-320" rx="71.4873" ry="18"/>
<text text-anchor="middle" x="1913.109" y="-316.3" font-family="Times,serif" font-size="14.00" fill="#000000">chef/ubuntu_java</text>
</g>
<!-- packer/ubuntu&#45;java* -->
<g id="node15" class="node">
<title>packer/ubuntu&#45;java*</title>
<ellipse fill="none" stroke="#000000" cx="2136.9423" cy="-320" rx="83.3857" ry="18"/>
<text text-anchor="middle" x="2136.9423" y="-316.3" font-family="Times,serif" font-size="14.00" fill="#000000">packer/ubuntu&#45;java*</text>
</g>
<!-- chef/ubuntu_java&#45;&gt;packer/ubuntu&#45;java* -->
<g id="edge34" class="edge">
<title>chef/ubuntu_java&#45;&gt;packer/ubuntu&#45;java*</title>
<path fill="none" stroke="#000000" d="M1984.8549,-320C2003.4752,-320 2023.806,-320 2043.3683,-320"/>
<polygon fill="#000000" stroke="#000000" points="2043.5149,-323.5001 2053.5149,-320 2043.5148,-316.5001 2043.5149,-323.5001"/>
</g>
<!-- packer/ubuntu&#45;java*&#45;&gt;terraform/private -->
<g id="edge42" class="edge">
<title>packer/ubuntu&#45;java*&#45;&gt;terraform/private</title>
<path fill="none" stroke="#000000" d="M2210.3939,-311.5257C2224.2395,-309.9283 2238.7363,-308.2558 2252.6287,-306.6529"/>
<polygon fill="#000000" stroke="#000000" points="2253.0868,-310.1234 2262.6197,-305.5003 2252.2844,-303.1695 2253.0868,-310.1234"/>
</g>
<!-- @terraform/users -->
<g id="node16" class="node">
<title>@terraform/users</title>
<ellipse fill="none" stroke="#000000" cx="73.4435" cy="-346" rx="73.387" ry="18"/>
<text text-anchor="middle" x="73.4435" y="-342.3" font-family="Times,serif" font-size="14.00" fill="#000000">@terraform/users</text>
</g>
<!-- @terraform/users&#45;&gt;@terraform/vpc -->
<g id="edge35" class="edge">
<title>@terraform/users&#45;&gt;@terraform/vpc</title>
<path fill="none" stroke="#000000" d="M146.9853,-346C155.4278,-346 164.0576,-346 172.5552,-346"/>
<polygon fill="#000000" stroke="#000000" points="172.8334,-349.5001 182.8334,-346 172.8333,-342.5001 172.8334,-349.5001"/>
</g>
<!-- @shell/root&#45;certificates&#45;&gt;@shell/init&#45;vault -->
<g id="edge45" class="edge">
<title>@shell/root&#45;certificates&#45;&gt;@shell/init&#45;vault</title>
<path fill="none" stroke="#000000" d="M1771.4514,-425.7666C1791.8145,-426.3751 1813.214,-427.0147 1833.0353,-427.607"/>
<polygon fill="#000000" stroke="#000000" points="1833.1428,-431.1117 1843.2429,-427.9121 1833.352,-424.1148 1833.1428,-431.1117"/>
</g>
<!-- @shell/root&#45;certificates&#45;&gt;packer/authenticated&#45;ami* -->
<g id="edge41" class="edge">
<title>@shell/root&#45;certificates&#45;&gt;packer/authenticated&#45;ami*</title>
<path fill="none" stroke="#000000" d="M1743.8123,-409.9703C1772.0327,-404.3077 1805.3341,-397.6256 1834.9023,-391.6926"/>
<polygon fill="#000000" stroke="#000000" points="1835.658,-395.1108 1844.7739,-389.7118 1834.2808,-388.2476 1835.658,-395.1108"/>
</g>
<!-- packer/authenticated&#45;ami*&#45;&gt;packer/ubuntu&#45;java* -->
<g id="edge44" class="edge">
<title>packer/authenticated&#45;ami*&#45;&gt;packer/ubuntu&#45;java*</title>
<path fill="none" stroke="#000000" d="M1972.5046,-361.1401C2003.2406,-353.4503 2040.8117,-344.0506 2072.2782,-336.1781"/>
<polygon fill="#000000" stroke="#000000" points="2073.4122,-339.5023 2082.2637,-333.6798 2071.7132,-332.7116 2073.4122,-339.5023"/>
</g>
</g>
</svg>
