<?xml version="1.0" encoding="UTF-8" standalone="no"?>
<!DOCTYPE svg PUBLIC "-//W3C//DTD SVG 1.1//EN"
 "http://www.w3.org/Graphics/SVG/1.1/DTD/svg11.dtd">
<!-- Generated by graphviz version 2.40.1 (20161225.0304)
 -->
<!-- Title: G Pages: 1 -->
<svg width="2280pt" height="507pt"
 viewBox="0.00 0.00 2280.13 506.53" xmlns="http://www.w3.org/2000/svg" xmlns:xlink="http://www.w3.org/1999/xlink">
<g id="graph0" class="graph" transform="scale(1 1) rotate(0) translate(4 502.532)">
<title>G</title>
<polygon fill="#ffffff" stroke="transparent" points="-4,4 -4,-502.532 2276.1303,-502.532 2276.1303,4 -4,4"/>
<text text-anchor="middle" x="1136.0652" y="-7.8" font-family="Times,serif" font-size="14.00" fill="#000000">pipeline</text>
<!-- @terraform/vpc -->
<g id="node1" class="node">
<title>@terraform/vpc</title>
<ellipse fill="none" stroke="#000000" cx="67.594" cy="-360.532" rx="67.6881" ry="18"/>
<text text-anchor="middle" x="67.594" y="-356.832" font-family="Times,serif" font-size="14.00" fill="#000000">@terraform/vpc</text>
</g>
<!-- @ansible/machines -->
<g id="node2" class="node">
<title>@ansible/machines</title>
<ellipse fill="none" stroke="#000000" cx="251.1309" cy="-337.532" rx="79.8859" ry="18"/>
<text text-anchor="middle" x="251.1309" y="-333.832" font-family="Times,serif" font-size="14.00" fill="#000000">@ansible/machines</text>
</g>
<!-- @terraform/vpc&#45;&gt;@ansible/machines -->
<g id="edge1" class="edge">
<title>@terraform/vpc&#45;&gt;@ansible/machines</title>
<path fill="none" stroke="#000000" d="M128.9643,-352.8414C142.4652,-351.1495 156.9557,-349.3336 171.0705,-347.5648"/>
<polygon fill="#000000" stroke="#000000" points="171.7752,-351.004 181.2624,-346.2876 170.9047,-344.0583 171.7752,-351.004"/>
</g>
<!-- @ansible/worker&#45;provision -->
<g id="node3" class="node">
<title>@ansible/worker&#45;provision</title>
<ellipse fill="none" stroke="#000000" cx="474.3143" cy="-291.532" rx="107.4815" ry="18"/>
<text text-anchor="middle" x="474.3143" y="-287.832" font-family="Times,serif" font-size="14.00" fill="#000000">@ansible/worker&#45;provision</text>
</g>
<!-- @ansible/machines&#45;&gt;@ansible/worker&#45;provision -->
<g id="edge2" class="edge">
<title>@ansible/machines&#45;&gt;@ansible/worker&#45;provision</title>
<path fill="none" stroke="#000000" d="M310.354,-325.3256C336.8078,-319.8733 368.3395,-313.3743 396.6513,-307.539"/>
<polygon fill="#000000" stroke="#000000" points="397.43,-310.9522 406.5176,-305.5055 396.0169,-304.0963 397.43,-310.9522"/>
</g>
<!-- terraform/vault -->
<g id="node7" class="node">
<title>terraform/vault</title>
<ellipse fill="none" stroke="#000000" cx="1164.0127" cy="-249.532" rx="64.189" ry="18"/>
<text text-anchor="middle" x="1164.0127" y="-245.832" font-family="Times,serif" font-size="14.00" fill="#000000">terraform/vault</text>
</g>
<!-- @ansible/machines&#45;&gt;terraform/vault -->
<g id="edge20" class="edge">
<title>@ansible/machines&#45;&gt;terraform/vault</title>
<path fill="none" stroke="#000000" d="M266.7358,-319.7701C313.5219,-268.0446 459.2114,-117.879 617.5548,-65.532 796.1087,-6.5037 875.6873,-3.3814 1039.6205,-95.532 1092.4244,-125.2143 1131.4817,-187.0215 1150.6918,-222.6497"/>
<polygon fill="#000000" stroke="#000000" points="1147.6103,-224.3098 1155.3619,-231.5323 1153.8062,-221.0523 1147.6103,-224.3098"/>
</g>
<!-- terraform/private -->
<g id="node9" class="node">
<title>terraform/private</title>
<ellipse fill="none" stroke="#000000" cx="2013.8501" cy="-337.532" rx="71.4873" ry="18"/>
<text text-anchor="middle" x="2013.8501" y="-333.832" font-family="Times,serif" font-size="14.00" fill="#000000">terraform/private</text>
</g>
<!-- @ansible/machines&#45;&gt;terraform/private -->
<g id="edge26" class="edge">
<title>@ansible/machines&#45;&gt;terraform/private</title>
<path fill="none" stroke="#000000" d="M278.8178,-354.4576C349.1588,-395.7937 541.5672,-498.532 716.346,-498.532 716.346,-498.532 716.346,-498.532 1599.3305,-498.532 1740.4553,-498.532 1779.2117,-478.773 1906.3564,-417.532 1936.5156,-403.0055 1966.7333,-379.5329 1987.4147,-361.7614"/>
<polygon fill="#000000" stroke="#000000" points="1989.9002,-364.2374 1995.1241,-355.0199 1985.2923,-358.9679 1989.9002,-364.2374"/>
</g>
<!-- terraform/buckets -->
<g id="node4" class="node">
<title>terraform/buckets</title>
<ellipse fill="none" stroke="#000000" cx="716.346" cy="-406.532" rx="73.387" ry="18"/>
<text text-anchor="middle" x="716.346" y="-402.832" font-family="Times,serif" font-size="14.00" fill="#000000">terraform/buckets</text>
</g>
<!-- @ansible/worker&#45;provision&#45;&gt;terraform/buckets -->
<g id="edge3" class="edge">
<title>@ansible/worker&#45;provision&#45;&gt;terraform/buckets</title>
<path fill="none" stroke="#000000" d="M500.6076,-309.0522C528.6771,-327.2024 574.8942,-355.5214 617.5548,-374.532 630.3422,-380.2304 644.4617,-385.4161 657.9285,-389.8758"/>
<polygon fill="#000000" stroke="#000000" points="656.9992,-393.2536 667.5908,-392.9918 659.1477,-386.5914 656.9992,-393.2536"/>
</g>
<!-- packer/source&#45;ami* -->
<g id="node5" class="node">
<title>packer/source&#45;ami*</title>
<ellipse fill="none" stroke="#000000" cx="716.346" cy="-92.532" rx="80.6858" ry="18"/>
<text text-anchor="middle" x="716.346" y="-88.832" font-family="Times,serif" font-size="14.00" fill="#000000">packer/source&#45;ami*</text>
</g>
<!-- @ansible/worker&#45;provision&#45;&gt;packer/source&#45;ami* -->
<g id="edge12" class="edge">
<title>@ansible/worker&#45;provision&#45;&gt;packer/source&#45;ami*</title>
<path fill="none" stroke="#000000" d="M484.9215,-273.5928C505.9409,-239.5636 556.1968,-165.3965 617.5548,-124.532 627.1875,-118.1166 638.2013,-112.9065 649.2979,-108.7006"/>
<polygon fill="#000000" stroke="#000000" points="650.7761,-111.8904 659.0381,-105.2579 648.4433,-105.2905 650.7761,-111.8904"/>
</g>
<!-- @ansible/worker&#45;provision&#45;&gt;terraform/vault -->
<g id="edge5" class="edge">
<title>@ansible/worker&#45;provision&#45;&gt;terraform/vault</title>
<path fill="none" stroke="#000000" d="M554.1995,-279.502C574.8262,-276.4832 597.0067,-273.3135 617.5548,-270.532 721.2208,-256.4995 746.7252,-247.9888 851.1373,-241.532 934.7479,-236.3616 955.8934,-238.8424 1039.6205,-241.532 1056.368,-242.07 1074.3643,-243.0144 1091.3218,-244.0702"/>
<polygon fill="#000000" stroke="#000000" points="1091.5215,-247.5902 1101.7256,-244.7393 1091.9708,-240.6046 1091.5215,-247.5902"/>
</g>
<!-- terraform/dns -->
<g id="node8" class="node">
<title>terraform/dns</title>
<ellipse fill="none" stroke="#000000" cx="945.3789" cy="-398.532" rx="59.2899" ry="18"/>
<text text-anchor="middle" x="945.3789" y="-394.832" font-family="Times,serif" font-size="14.00" fill="#000000">terraform/dns</text>
</g>
<!-- @ansible/worker&#45;provision&#45;&gt;terraform/dns -->
<g id="edge6" class="edge">
<title>@ansible/worker&#45;provision&#45;&gt;terraform/dns</title>
<path fill="none" stroke="#000000" d="M516.0623,-308.1398C544.3416,-318.8825 582.7547,-332.4978 617.5548,-341.532 666.484,-354.2342 801.7302,-376.2093 882.4035,-388.8416"/>
<polygon fill="#000000" stroke="#000000" points="882.0238,-392.3247 892.4442,-390.4098 883.104,-385.4085 882.0238,-392.3247"/>
</g>
<!-- terraform/vault&#45;volume -->
<g id="node11" class="node">
<title>terraform/vault&#45;volume</title>
<ellipse fill="none" stroke="#000000" cx="945.3789" cy="-268.532" rx="94.4839" ry="18"/>
<text text-anchor="middle" x="945.3789" y="-264.832" font-family="Times,serif" font-size="14.00" fill="#000000">terraform/vault&#45;volume</text>
</g>
<!-- @ansible/worker&#45;provision&#45;&gt;terraform/vault&#45;volume -->
<g id="edge11" class="edge">
<title>@ansible/worker&#45;provision&#45;&gt;terraform/vault&#45;volume</title>
<path fill="none" stroke="#000000" d="M577.4002,-286.4988C656.4375,-282.6398 764.9564,-277.3413 843.6528,-273.4989"/>
<polygon fill="#000000" stroke="#000000" points="844.2496,-276.974 854.067,-272.9904 843.9081,-269.9823 844.2496,-276.974"/>
</g>
<!-- packer/vault&#45;ami* -->
<g id="node12" class="node">
<title>packer/vault&#45;ami*</title>
<ellipse fill="none" stroke="#000000" cx="945.3789" cy="-122.532" rx="75.2868" ry="18"/>
<text text-anchor="middle" x="945.3789" y="-118.832" font-family="Times,serif" font-size="14.00" fill="#000000">packer/vault&#45;ami*</text>
</g>
<!-- @ansible/worker&#45;provision&#45;&gt;packer/vault&#45;ami* -->
<g id="edge13" class="edge">
<title>@ansible/worker&#45;provision&#45;&gt;packer/vault&#45;ami*</title>
<path fill="none" stroke="#000000" d="M487.3033,-273.3512C509.9103,-243.3181 559.6513,-184.0332 617.5548,-157.532 659.3976,-138.3815 778.007,-129.48 860.4416,-125.5078"/>
<polygon fill="#000000" stroke="#000000" points="860.7333,-128.9981 870.5594,-125.0361 860.4072,-122.0057 860.7333,-128.9981"/>
</g>
<!-- terraform/security -->
<g id="node13" class="node">
<title>terraform/security</title>
<ellipse fill="none" stroke="#000000" cx="716.346" cy="-314.532" rx="74.9875" ry="18"/>
<text text-anchor="middle" x="716.346" y="-310.832" font-family="Times,serif" font-size="14.00" fill="#000000">terraform/security</text>
</g>
<!-- @ansible/worker&#45;provision&#45;&gt;terraform/security -->
<g id="edge23" class="edge">
<title>@ansible/worker&#45;provision&#45;&gt;terraform/security</title>
<path fill="none" stroke="#000000" d="M567.8901,-300.4244C590.5128,-302.5742 614.486,-304.8524 636.4166,-306.9364"/>
<polygon fill="#000000" stroke="#000000" points="636.3826,-310.4489 646.6689,-307.9107 637.0449,-303.4803 636.3826,-310.4489"/>
</g>
<!-- terraform/users -->
<g id="node16" class="node">
<title>terraform/users</title>
<ellipse fill="none" stroke="#000000" cx="945.3789" cy="-452.532" rx="64.9885" ry="18"/>
<text text-anchor="middle" x="945.3789" y="-448.832" font-family="Times,serif" font-size="14.00" fill="#000000">terraform/users</text>
</g>
<!-- terraform/buckets&#45;&gt;terraform/users -->
<g id="edge36" class="edge">
<title>terraform/buckets&#45;&gt;terraform/users</title>
<path fill="none" stroke="#000000" d="M773.2552,-417.9619C806.5352,-424.646 848.5922,-433.0929 882.8026,-439.9639"/>
<polygon fill="#000000" stroke="#000000" points="882.1947,-443.4117 892.6882,-441.9494 883.5732,-436.5487 882.1947,-443.4117"/>
</g>
<!-- terraform/bastion -->
<g id="node6" class="node">
<title>terraform/bastion</title>
<ellipse fill="none" stroke="#000000" cx="945.3789" cy="-176.532" rx="72.2875" ry="18"/>
<text text-anchor="middle" x="945.3789" y="-172.832" font-family="Times,serif" font-size="14.00" fill="#000000">terraform/bastion</text>
</g>
<!-- packer/source&#45;ami*&#45;&gt;terraform/bastion -->
<g id="edge4" class="edge">
<title>packer/source&#45;ami*&#45;&gt;terraform/bastion</title>
<path fill="none" stroke="#000000" d="M751.6424,-108.8452C778.5689,-120.949 816.759,-137.3887 851.1373,-149.532 862.2956,-153.4734 874.3448,-157.2656 885.9777,-160.6989"/>
<polygon fill="#000000" stroke="#000000" points="885.0438,-164.0722 895.6228,-163.4938 886.9921,-157.3488 885.0438,-164.0722"/>
</g>
<!-- packer/source&#45;ami*&#45;&gt;packer/vault&#45;ami* -->
<g id="edge16" class="edge">
<title>packer/source&#45;ami*&#45;&gt;packer/vault&#45;ami*</title>
<path fill="none" stroke="#000000" d="M785.9963,-101.6552C812.2534,-105.0945 842.2485,-109.0234 869.0814,-112.5382"/>
<polygon fill="#000000" stroke="#000000" points="868.8262,-116.0346 879.1961,-113.863 869.7354,-109.0938 868.8262,-116.0346"/>
</g>
<!-- packer/authenticated&#45;ami* -->
<g id="node19" class="node">
<title>packer/authenticated&#45;ami*</title>
<ellipse fill="none" stroke="#000000" cx="1599.3305" cy="-176.532" rx="104.7816" ry="18"/>
<text text-anchor="middle" x="1599.3305" y="-172.832" font-family="Times,serif" font-size="14.00" fill="#000000">packer/authenticated&#45;ami*</text>
</g>
<!-- packer/source&#45;ami*&#45;&gt;packer/authenticated&#45;ami* -->
<g id="edge32" class="edge">
<title>packer/source&#45;ami*&#45;&gt;packer/authenticated&#45;ami*</title>
<path fill="none" stroke="#000000" d="M796.5173,-90.288C862.0113,-89.1729 956.9362,-89.1943 1039.6205,-95.532 1211.2125,-108.6845 1410.2178,-141.7982 1518.6578,-161.3733"/>
<polygon fill="#000000" stroke="#000000" points="1518.0814,-164.8258 1528.5454,-163.1661 1519.3302,-157.9381 1518.0814,-164.8258"/>
</g>
<!-- terraform/bastion&#45;&gt;terraform/vault -->
<g id="edge29" class="edge">
<title>terraform/bastion&#45;&gt;terraform/vault</title>
<path fill="none" stroke="#000000" d="M988.5739,-190.9545C1024.2161,-202.8551 1074.88,-219.7714 1112.6067,-232.368"/>
<polygon fill="#000000" stroke="#000000" points="1111.7971,-235.7876 1122.3908,-235.6348 1114.0141,-229.1479 1111.7971,-235.7876"/>
</g>
<!-- terraform/services -->
<g id="node10" class="node">
<title>terraform/services</title>
<ellipse fill="none" stroke="#000000" cx="2196.737" cy="-276.532" rx="75.2868" ry="18"/>
<text text-anchor="middle" x="2196.737" y="-272.832" font-family="Times,serif" font-size="14.00" fill="#000000">terraform/services</text>
</g>
<!-- terraform/bastion&#45;&gt;terraform/services -->
<g id="edge9" class="edge">
<title>terraform/bastion&#45;&gt;terraform/services</title>
<path fill="none" stroke="#000000" d="M995.5357,-163.4588C1100.2928,-136.3526 1335.7613,-76.532 1373.5473,-76.532 1373.5473,-76.532 1373.5473,-76.532 1823.1638,-76.532 1970.0104,-76.532 2114.9807,-198.1283 2171.7207,-251.696"/>
<polygon fill="#000000" stroke="#000000" points="2169.4861,-254.4018 2179.1324,-258.7834 2174.3239,-249.3425 2169.4861,-254.4018"/>
</g>
<!-- terraform/vault&#45;&gt;terraform/private -->
<g id="edge7" class="edge">
<title>terraform/vault&#45;&gt;terraform/private</title>
<path fill="none" stroke="#000000" d="M1200.6436,-264.3336C1225.0806,-273.5237 1258.1574,-284.6664 1288.4048,-290.532 1409.6441,-314.0428 1769.4724,-329.0744 1932.2505,-334.851"/>
<polygon fill="#000000" stroke="#000000" points="1932.5659,-338.3642 1942.6828,-335.2181 1932.8121,-331.3685 1932.5659,-338.3642"/>
</g>
<!-- terraform/vault&#45;&gt;terraform/services -->
<g id="edge8" class="edge">
<title>terraform/vault&#45;&gt;terraform/services</title>
<path fill="none" stroke="#000000" d="M1224.8593,-255.6925C1308.9534,-263.6613 1465.4932,-276.532 1599.3305,-276.532 1599.3305,-276.532 1599.3305,-276.532 1823.1638,-276.532 1921.808,-276.532 2035.104,-276.532 2110.8218,-276.532"/>
<polygon fill="#000000" stroke="#000000" points="2111.2511,-280.0321 2121.251,-276.532 2111.251,-273.0321 2111.2511,-280.0321"/>
</g>
<!-- shell/root&#45;certificates -->
<g id="node18" class="node">
<title>shell/root&#45;certificates</title>
<ellipse fill="none" stroke="#000000" cx="1373.5473" cy="-230.532" rx="85.2851" ry="18"/>
<text text-anchor="middle" x="1373.5473" y="-226.832" font-family="Times,serif" font-size="14.00" fill="#000000">shell/root&#45;certificates</text>
</g>
<!-- terraform/vault&#45;&gt;shell/root&#45;certificates -->
<g id="edge28" class="edge">
<title>terraform/vault&#45;&gt;shell/root&#45;certificates</title>
<path fill="none" stroke="#000000" d="M1225.4642,-243.9598C1244.0589,-242.2737 1264.8631,-240.3872 1284.8659,-238.5734"/>
<polygon fill="#000000" stroke="#000000" points="1285.2782,-242.0505 1294.9212,-237.6616 1284.646,-235.0791 1285.2782,-242.0505"/>
</g>
<!-- terraform/dns&#45;&gt;terraform/vault -->
<g id="edge18" class="edge">
<title>terraform/dns&#45;&gt;terraform/vault</title>
<path fill="none" stroke="#000000" d="M969.6119,-382.0171C1008.907,-355.2373 1086.5874,-302.2977 1130.9327,-272.0762"/>
<polygon fill="#000000" stroke="#000000" points="1133.0437,-274.8731 1139.3361,-266.3492 1129.1015,-269.0887 1133.0437,-274.8731"/>
</g>
<!-- terraform/dns&#45;&gt;terraform/private -->
<g id="edge17" class="edge">
<title>terraform/dns&#45;&gt;terraform/private</title>
<path fill="none" stroke="#000000" d="M991.8231,-409.8172C1016.5595,-415.4066 1047.5864,-421.7514 1075.6205,-425.532 1207.1111,-443.2646 1240.8664,-444.532 1373.5473,-444.532 1373.5473,-444.532 1373.5473,-444.532 1599.3305,-444.532 1737.5014,-444.532 1893.5917,-388.1062 1968.7121,-357.2057"/>
<polygon fill="#000000" stroke="#000000" points="1970.4422,-360.2768 1978.3317,-353.2053 1967.7544,-353.8134 1970.4422,-360.2768"/>
</g>
<!-- terraform/prometheus -->
<g id="node21" class="node">
<title>terraform/prometheus</title>
<ellipse fill="none" stroke="#000000" cx="1164.0127" cy="-398.532" rx="88.2844" ry="18"/>
<text text-anchor="middle" x="1164.0127" y="-394.832" font-family="Times,serif" font-size="14.00" fill="#000000">terraform/prometheus</text>
</g>
<!-- terraform/dns&#45;&gt;terraform/prometheus -->
<g id="edge35" class="edge">
<title>terraform/dns&#45;&gt;terraform/prometheus</title>
<path fill="none" stroke="#000000" d="M1004.5443,-398.532C1023.2372,-398.532 1044.428,-398.532 1065.1163,-398.532"/>
<polygon fill="#000000" stroke="#000000" points="1065.219,-402.0321 1075.2189,-398.532 1065.2189,-395.0321 1065.219,-402.0321"/>
</g>
<!-- terraform/private&#45;&gt;terraform/services -->
<g id="edge10" class="edge">
<title>terraform/private&#45;&gt;terraform/services</title>
<path fill="none" stroke="#000000" d="M2057.1917,-323.0759C2082.8745,-314.5097 2115.6341,-303.583 2142.9574,-294.4697"/>
<polygon fill="#000000" stroke="#000000" points="2144.3759,-297.6862 2152.7547,-291.2019 2142.161,-291.0458 2144.3759,-297.6862"/>
</g>
<!-- terraform/vault&#45;volume&#45;&gt;terraform/vault -->
<g id="edge15" class="edge">
<title>terraform/vault&#45;volume&#45;&gt;terraform/vault</title>
<path fill="none" stroke="#000000" d="M1031.1613,-261.0773C1051.4342,-259.3155 1072.8407,-257.4552 1092.4097,-255.7546"/>
<polygon fill="#000000" stroke="#000000" points="1092.8003,-259.2339 1102.4597,-254.8812 1092.1942,-252.2602 1092.8003,-259.2339"/>
</g>
<!-- packer/vault&#45;ami*&#45;&gt;terraform/vault -->
<g id="edge14" class="edge">
<title>packer/vault&#45;ami*&#45;&gt;terraform/vault</title>
<path fill="none" stroke="#000000" d="M1001.6097,-134.6816C1014.4805,-138.5322 1027.8336,-143.4245 1039.6205,-149.532 1078.081,-169.4608 1115.9552,-202.3405 1139.6172,-224.9224"/>
<polygon fill="#000000" stroke="#000000" points="1137.4604,-227.7062 1147.0772,-232.1523 1142.332,-222.6795 1137.4604,-227.7062"/>
</g>
<!-- terraform/security&#45;&gt;terraform/bastion -->
<g id="edge21" class="edge">
<title>terraform/security&#45;&gt;terraform/bastion</title>
<path fill="none" stroke="#000000" d="M744.4299,-297.6105C785.7522,-272.7125 862.9712,-226.1854 908.7148,-198.6234"/>
<polygon fill="#000000" stroke="#000000" points="910.6648,-201.5347 917.4239,-193.3759 907.0522,-195.539 910.6648,-201.5347"/>
</g>
<!-- terraform/security&#45;&gt;terraform/vault -->
<g id="edge19" class="edge">
<title>terraform/security&#45;&gt;terraform/vault</title>
<path fill="none" stroke="#000000" d="M790.9927,-316.3446C857.0485,-316.4857 955.7044,-313.1073 1039.6205,-295.532 1067.5487,-289.6828 1097.5875,-278.717 1121.1489,-268.9591"/>
<polygon fill="#000000" stroke="#000000" points="1122.646,-272.1263 1130.4962,-265.0112 1119.9224,-265.6778 1122.646,-272.1263"/>
</g>
<!-- terraform/security&#45;&gt;terraform/private -->
<g id="edge22" class="edge">
<title>terraform/security&#45;&gt;terraform/private</title>
<path fill="none" stroke="#000000" d="M781.4408,-323.5375C868.4396,-334.7746 1027.5137,-352.532 1164.0127,-352.532 1164.0127,-352.532 1164.0127,-352.532 1599.3305,-352.532 1715.64,-352.532 1850.1868,-346.5613 1933.6617,-342.1538"/>
<polygon fill="#000000" stroke="#000000" points="1934.0358,-345.6389 1943.8351,-341.611 1933.6628,-338.6489 1934.0358,-345.6389"/>
</g>
<!-- chef/ubuntu_java -->
<g id="node14" class="node">
<title>chef/ubuntu_java</title>
<ellipse fill="none" stroke="#000000" cx="1599.3305" cy="-122.532" rx="71.4873" ry="18"/>
<text text-anchor="middle" x="1599.3305" y="-118.832" font-family="Times,serif" font-size="14.00" fill="#000000">chef/ubuntu_java</text>
</g>
<!-- packer/ubuntu&#45;java* -->
<g id="node15" class="node">
<title>packer/ubuntu&#45;java*</title>
<ellipse fill="none" stroke="#000000" cx="1823.1638" cy="-176.532" rx="83.3857" ry="18"/>
<text text-anchor="middle" x="1823.1638" y="-172.832" font-family="Times,serif" font-size="14.00" fill="#000000">packer/ubuntu&#45;java*</text>
</g>
<!-- chef/ubuntu_java&#45;&gt;packer/ubuntu&#45;java* -->
<g id="edge24" class="edge">
<title>chef/ubuntu_java&#45;&gt;packer/ubuntu&#45;java*</title>
<path fill="none" stroke="#000000" d="M1650.9634,-134.9885C1682.6907,-142.6428 1723.6312,-152.5197 1757.632,-160.7224"/>
<polygon fill="#000000" stroke="#000000" points="1756.9405,-164.156 1767.4825,-163.0989 1758.5823,-157.3512 1756.9405,-164.156"/>
</g>
<!-- packer/ubuntu&#45;java*&#45;&gt;terraform/private -->
<g id="edge31" class="edge">
<title>packer/ubuntu&#45;java*&#45;&gt;terraform/private</title>
<path fill="none" stroke="#000000" d="M1843.9336,-194.0683C1878.268,-223.0576 1946.9055,-281.0095 1985.6123,-313.6904"/>
<polygon fill="#000000" stroke="#000000" points="1983.4958,-316.484 1993.3945,-320.261 1988.0117,-311.1355 1983.4958,-316.484"/>
</g>
<!-- terraform/users&#45;&gt;@terraform/vpc -->
<g id="edge25" class="edge">
<title>terraform/users&#45;&gt;@terraform/vpc</title>
<path fill="none" stroke="#000000" d="M880.8904,-450.206C814.7024,-447.4876 708.7848,-442.2185 617.5548,-433.532 443.5677,-416.9658 239.9179,-387.2075 136.0715,-371.282"/>
<polygon fill="#000000" stroke="#000000" points="136.45,-367.7992 126.0341,-369.7381 135.3857,-374.7178 136.45,-367.7992"/>
</g>
<!-- ansible/worker&#45;provision -->
<g id="node17" class="node">
<title>ansible/worker&#45;provision</title>
<ellipse fill="none" stroke="#000000" cx="716.346" cy="-184.532" rx="98.5829" ry="18"/>
<text text-anchor="middle" x="716.346" y="-180.832" font-family="Times,serif" font-size="14.00" fill="#000000">ansible/worker&#45;provision</text>
</g>
<!-- ansible/worker&#45;provision&#45;&gt;terraform/bastion -->
<g id="edge27" class="edge">
<title>ansible/worker&#45;provision&#45;&gt;terraform/bastion</title>
<path fill="none" stroke="#000000" d="M813.4766,-181.1393C830.2367,-180.5539 847.5056,-179.9507 863.8017,-179.3815"/>
<polygon fill="#000000" stroke="#000000" points="863.9378,-182.879 873.8095,-179.0319 863.6933,-175.8832 863.9378,-182.879"/>
</g>
<!-- shell/root&#45;certificates&#45;&gt;packer/authenticated&#45;ami* -->
<g id="edge30" class="edge">
<title>shell/root&#45;certificates&#45;&gt;packer/authenticated&#45;ami*</title>
<path fill="none" stroke="#000000" d="M1429.9395,-217.0448C1459.6403,-209.9414 1496.371,-201.1566 1528.029,-193.585"/>
<polygon fill="#000000" stroke="#000000" points="1529.2024,-196.9032 1538.114,-191.173 1527.5741,-190.0952 1529.2024,-196.9032"/>
</g>
<!-- shell/init&#45;vault -->
<g id="node20" class="node">
<title>shell/init&#45;vault</title>
<ellipse fill="none" stroke="#000000" cx="1599.3305" cy="-230.532" rx="61.99" ry="18"/>
<text text-anchor="middle" x="1599.3305" y="-226.832" font-family="Times,serif" font-size="14.00" fill="#000000">shell/init&#45;vault</text>
</g>
<!-- shell/root&#45;certificates&#45;&gt;shell/init&#45;vault -->
<g id="edge34" class="edge">
<title>shell/root&#45;certificates&#45;&gt;shell/init&#45;vault</title>
<path fill="none" stroke="#000000" d="M1458.9062,-230.532C1481.4375,-230.532 1505.5272,-230.532 1527.2788,-230.532"/>
<polygon fill="#000000" stroke="#000000" points="1527.422,-234.0321 1537.4219,-230.532 1527.4219,-227.0321 1527.422,-234.0321"/>
</g>
<!-- packer/authenticated&#45;ami*&#45;&gt;packer/ubuntu&#45;java* -->
<g id="edge33" class="edge">
<title>packer/authenticated&#45;ami*&#45;&gt;packer/ubuntu&#45;java*</title>
<path fill="none" stroke="#000000" d="M1704.0382,-176.532C1712.5316,-176.532 1721.0807,-176.532 1729.4886,-176.532"/>
<polygon fill="#000000" stroke="#000000" points="1729.6612,-180.0321 1739.6611,-176.532 1729.6611,-173.0321 1729.6612,-180.0321"/>
</g>
</g>
</svg>
