<?xml version="1.0" encoding="UTF-8" standalone="no"?>
<!DOCTYPE svg PUBLIC "-//W3C//DTD SVG 1.1//EN"
 "http://www.w3.org/Graphics/SVG/1.1/DTD/svg11.dtd">
<!-- Generated by graphviz version 2.40.1 (20161225.0304)
 -->
<!-- Title: G Pages: 1 -->
<svg width="2574pt" height="498pt"
 viewBox="0.00 0.00 2574.41 498.12" xmlns="http://www.w3.org/2000/svg" xmlns:xlink="http://www.w3.org/1999/xlink">
<g id="graph0" class="graph" transform="scale(1 1) rotate(0) translate(4 494.1202)">
<title>G</title>
<polygon fill="#ffffff" stroke="transparent" points="-4,4 -4,-494.1202 2570.4106,-494.1202 2570.4106,4 -4,4"/>
<text text-anchor="middle" x="1283.2053" y="-7.8" font-family="Times,serif" font-size="14.00" fill="#000000">pipeline</text>
<!-- @ansible/machines -->
<g id="node1" class="node">
<title>@ansible/machines</title>
<ellipse fill="none" stroke="#000000" cx="251.1309" cy="-192.1202" rx="79.8859" ry="18"/>
<text text-anchor="middle" x="251.1309" y="-188.4202" font-family="Times,serif" font-size="14.00" fill="#000000">@ansible/machines</text>
</g>
<!-- @ansible/worker&#45;provision -->
<g id="node2" class="node">
<title>@ansible/worker&#45;provision</title>
<ellipse fill="none" stroke="#000000" cx="474.3143" cy="-335.1202" rx="107.4815" ry="18"/>
<text text-anchor="middle" x="474.3143" y="-331.4202" font-family="Times,serif" font-size="14.00" fill="#000000">@ansible/worker&#45;provision</text>
</g>
<!-- @ansible/machines&#45;&gt;@ansible/worker&#45;provision -->
<g id="edge4" class="edge">
<title>@ansible/machines&#45;&gt;@ansible/worker&#45;provision</title>
<path fill="none" stroke="#000000" d="M266.7094,-210.0822C287.5197,-233.0955 326.502,-272.898 367.0738,-297.1202 379.7513,-304.6889 394.1686,-311.0774 408.2288,-316.3297"/>
<polygon fill="#000000" stroke="#000000" points="407.2854,-319.7095 417.88,-319.7849 409.6449,-313.1191 407.2854,-319.7095"/>
</g>
<!-- packer/source&#45;ami* -->
<g id="node5" class="node">
<title>packer/source&#45;ami*</title>
<ellipse fill="none" stroke="#000000" cx="1088.6194" cy="-298.1202" rx="80.6858" ry="18"/>
<text text-anchor="middle" x="1088.6194" y="-294.4202" font-family="Times,serif" font-size="14.00" fill="#000000">packer/source&#45;ami*</text>
</g>
<!-- @ansible/machines&#45;&gt;packer/source&#45;ami* -->
<g id="edge14" class="edge">
<title>@ansible/machines&#45;&gt;packer/source&#45;ami*</title>
<path fill="none" stroke="#000000" d="M302.5035,-205.9489C322.5381,-210.9672 345.7691,-216.3289 367.0738,-220.1202 593.8363,-260.474 864.66,-282.9686 1000.9965,-292.5334"/>
<polygon fill="#000000" stroke="#000000" points="1000.7578,-296.0251 1010.9765,-293.2272 1001.2433,-289.042 1000.7578,-296.0251"/>
</g>
<!-- terraform/private -->
<g id="node10" class="node">
<title>terraform/private</title>
<ellipse fill="none" stroke="#000000" cx="2308.1303" cy="-145.1202" rx="71.4873" ry="18"/>
<text text-anchor="middle" x="2308.1303" y="-141.4202" font-family="Times,serif" font-size="14.00" fill="#000000">terraform/private</text>
</g>
<!-- @ansible/machines&#45;&gt;terraform/private -->
<g id="edge28" class="edge">
<title>@ansible/machines&#45;&gt;terraform/private</title>
<path fill="none" stroke="#000000" d="M270.611,-174.6085C292.5485,-155.7818 329.9956,-126.2549 367.0738,-109.1202 510.4139,-42.8791 553.8906,-23.1202 711.7964,-23.1202 711.7964,-23.1202 711.7964,-23.1202 1893.6107,-23.1202 2031.7936,-23.1202 2072.179,-21.1973 2200.6367,-72.1202 2230.1272,-83.8107 2259.6545,-104.6853 2280.2795,-121.1264"/>
<polygon fill="#000000" stroke="#000000" points="2278.3091,-124.0355 2288.2741,-127.634 2282.7281,-118.6066 2278.3091,-124.0355"/>
</g>
<!-- terraform/vault -->
<g id="node12" class="node">
<title>terraform/vault</title>
<ellipse fill="none" stroke="#000000" cx="1482.3408" cy="-190.1202" rx="64.189" ry="18"/>
<text text-anchor="middle" x="1482.3408" y="-186.4202" font-family="Times,serif" font-size="14.00" fill="#000000">terraform/vault</text>
</g>
<!-- @ansible/machines&#45;&gt;terraform/vault -->
<g id="edge7" class="edge">
<title>@ansible/machines&#45;&gt;terraform/vault</title>
<path fill="none" stroke="#000000" d="M312.9176,-180.6848C401.2675,-170.2747 568.828,-158.1202 711.7964,-158.1202 711.7964,-158.1202 711.7964,-158.1202 1088.6194,-158.1202 1206.2436,-158.1202 1343.2984,-168.4771 1420.7401,-178.0105"/>
<polygon fill="#000000" stroke="#000000" points="1420.4421,-181.5007 1430.8034,-179.2886 1421.3241,-174.5565 1420.4421,-181.5007"/>
</g>
<!-- @ansible/machines&#45;&gt;terraform/vault -->
<g id="edge22" class="edge">
<title>@ansible/machines&#45;&gt;terraform/vault</title>
<path fill="none" stroke="#000000" d="M331.3649,-191.6358C423.2207,-186.7272 578.2391,-176.1202 711.7964,-176.1202 711.7964,-176.1202 711.7964,-176.1202 1088.6194,-176.1202 1199.8546,-176.1202 1328.4668,-185.3825 1407.6058,-189.8515"/>
<polygon fill="#000000" stroke="#000000" points="1407.7824,-193.3665 1417.9601,-190.4232 1408.1683,-186.3771 1407.7824,-193.3665"/>
</g>
<!-- terraform/security -->
<g id="node13" class="node">
<title>terraform/security</title>
<ellipse fill="none" stroke="#000000" cx="1088.6194" cy="-112.1202" rx="74.9875" ry="18"/>
<text text-anchor="middle" x="1088.6194" y="-108.4202" font-family="Times,serif" font-size="14.00" fill="#000000">terraform/security</text>
</g>
<!-- @ansible/machines&#45;&gt;terraform/security -->
<g id="edge25" class="edge">
<title>@ansible/machines&#45;&gt;terraform/security</title>
<path fill="none" stroke="#000000" d="M282.6333,-175.5562C305.4145,-164.465 337.2984,-150.7291 367.0738,-144.1202 594.1993,-93.7079 871.1194,-99.5609 1006.3475,-106.6016"/>
<polygon fill="#000000" stroke="#000000" points="1006.4513,-110.1121 1016.6246,-107.1533 1006.8266,-103.1222 1006.4513,-110.1121"/>
</g>
<!-- terraform/dns -->
<g id="node15" class="node">
<title>terraform/dns</title>
<ellipse fill="none" stroke="#000000" cx="1088.6194" cy="-429.1202" rx="59.2899" ry="18"/>
<text text-anchor="middle" x="1088.6194" y="-425.4202" font-family="Times,serif" font-size="14.00" fill="#000000">terraform/dns</text>
</g>
<!-- @ansible/machines&#45;&gt;terraform/dns -->
<g id="edge8" class="edge">
<title>@ansible/machines&#45;&gt;terraform/dns</title>
<path fill="none" stroke="#000000" d="M257.4144,-210.1763C271.0148,-246.2201 306.8995,-326.6675 367.0738,-362.1202 581.5744,-488.4969 895.6092,-459.528 1027.122,-439.8653"/>
<polygon fill="#000000" stroke="#000000" points="1028.0444,-443.265 1037.3994,-438.2916 1026.9848,-436.3456 1028.0444,-443.265"/>
</g>
<!-- terraform/vault&#45;volume -->
<g id="node20" class="node">
<title>terraform/vault&#45;volume</title>
<ellipse fill="none" stroke="#000000" cx="711.7964" cy="-222.1202" rx="94.4839" ry="18"/>
<text text-anchor="middle" x="711.7964" y="-218.4202" font-family="Times,serif" font-size="14.00" fill="#000000">terraform/vault&#45;volume</text>
</g>
<!-- @ansible/machines&#45;&gt;terraform/vault&#45;volume -->
<g id="edge13" class="edge">
<title>@ansible/machines&#45;&gt;terraform/vault&#45;volume</title>
<path fill="none" stroke="#000000" d="M327.9766,-197.1246C405.9553,-202.2028 527.0078,-210.0862 612.2778,-215.6392"/>
<polygon fill="#000000" stroke="#000000" points="612.2875,-219.1472 622.4939,-216.3045 612.7425,-212.162 612.2875,-219.1472"/>
</g>
<!-- terraform/buckets -->
<g id="node3" class="node">
<title>terraform/buckets</title>
<ellipse fill="none" stroke="#000000" cx="711.7964" cy="-340.1202" rx="73.387" ry="18"/>
<text text-anchor="middle" x="711.7964" y="-336.4202" font-family="Times,serif" font-size="14.00" fill="#000000">terraform/buckets</text>
</g>
<!-- @ansible/worker&#45;provision&#45;&gt;terraform/buckets -->
<g id="edge5" class="edge">
<title>@ansible/worker&#45;provision&#45;&gt;terraform/buckets</title>
<path fill="none" stroke="#000000" d="M580.8987,-337.3642C596.7281,-337.6975 612.8488,-338.0369 628.1194,-338.3584"/>
<polygon fill="#000000" stroke="#000000" points="628.4701,-341.8665 638.5416,-338.5779 628.6175,-334.868 628.4701,-341.8665"/>
</g>
<!-- terraform/users -->
<g id="node8" class="node">
<title>terraform/users</title>
<ellipse fill="none" stroke="#000000" cx="907.0323" cy="-340.1202" rx="64.9885" ry="18"/>
<text text-anchor="middle" x="907.0323" y="-336.4202" font-family="Times,serif" font-size="14.00" fill="#000000">terraform/users</text>
</g>
<!-- terraform/buckets&#45;&gt;terraform/users -->
<g id="edge38" class="edge">
<title>terraform/buckets&#45;&gt;terraform/users</title>
<path fill="none" stroke="#000000" d="M785.3285,-340.1202C800.4345,-340.1202 816.3612,-340.1202 831.5352,-340.1202"/>
<polygon fill="#000000" stroke="#000000" points="831.9008,-343.6203 841.9007,-340.1202 831.9007,-336.6203 831.9008,-343.6203"/>
</g>
<!-- chef/ubuntu_java -->
<g id="node4" class="node">
<title>chef/ubuntu_java</title>
<ellipse fill="none" stroke="#000000" cx="1893.6107" cy="-183.1202" rx="71.4873" ry="18"/>
<text text-anchor="middle" x="1893.6107" y="-179.4202" font-family="Times,serif" font-size="14.00" fill="#000000">chef/ubuntu_java</text>
</g>
<!-- packer/ubuntu&#45;java* -->
<g id="node6" class="node">
<title>packer/ubuntu&#45;java*</title>
<ellipse fill="none" stroke="#000000" cx="2117.4441" cy="-183.1202" rx="83.3857" ry="18"/>
<text text-anchor="middle" x="2117.4441" y="-179.4202" font-family="Times,serif" font-size="14.00" fill="#000000">packer/ubuntu&#45;java*</text>
</g>
<!-- chef/ubuntu_java&#45;&gt;packer/ubuntu&#45;java* -->
<g id="edge26" class="edge">
<title>chef/ubuntu_java&#45;&gt;packer/ubuntu&#45;java*</title>
<path fill="none" stroke="#000000" d="M1965.3566,-183.1202C1983.9769,-183.1202 2004.3078,-183.1202 2023.87,-183.1202"/>
<polygon fill="#000000" stroke="#000000" points="2024.0166,-186.6203 2034.0166,-183.1202 2024.0166,-179.6203 2024.0166,-186.6203"/>
</g>
<!-- terraform/bastion -->
<g id="node9" class="node">
<title>terraform/bastion</title>
<ellipse fill="none" stroke="#000000" cx="1293.6044" cy="-260.1202" rx="72.2875" ry="18"/>
<text text-anchor="middle" x="1293.6044" y="-256.4202" font-family="Times,serif" font-size="14.00" fill="#000000">terraform/bastion</text>
</g>
<!-- packer/source&#45;ami*&#45;&gt;terraform/bastion -->
<g id="edge6" class="edge">
<title>packer/source&#45;ami*&#45;&gt;terraform/bastion</title>
<path fill="none" stroke="#000000" d="M1150.6779,-286.6158C1174.2894,-282.2387 1201.3106,-277.2295 1225.4562,-272.7534"/>
<polygon fill="#000000" stroke="#000000" points="1226.4155,-276.1353 1235.61,-270.8711 1225.1395,-269.2526 1226.4155,-276.1353"/>
</g>
<!-- packer/vault&#45;ami* -->
<g id="node11" class="node">
<title>packer/vault&#45;ami*</title>
<ellipse fill="none" stroke="#000000" cx="1293.6044" cy="-352.1202" rx="75.2868" ry="18"/>
<text text-anchor="middle" x="1293.6044" y="-348.4202" font-family="Times,serif" font-size="14.00" fill="#000000">packer/vault&#45;ami*</text>
</g>
<!-- packer/source&#45;ami*&#45;&gt;packer/vault&#45;ami* -->
<g id="edge18" class="edge">
<title>packer/source&#45;ami*&#45;&gt;packer/vault&#45;ami*</title>
<path fill="none" stroke="#000000" d="M1140.8761,-311.8864C1169.0106,-319.298 1203.8547,-328.4771 1233.1539,-336.1955"/>
<polygon fill="#000000" stroke="#000000" points="1232.2982,-339.5894 1242.8599,-338.7524 1234.0814,-332.8203 1232.2982,-339.5894"/>
</g>
<!-- packer/authenticated&#45;ami* -->
<g id="node17" class="node">
<title>packer/authenticated&#45;ami*</title>
<ellipse fill="none" stroke="#000000" cx="1893.6107" cy="-291.1202" rx="104.7816" ry="18"/>
<text text-anchor="middle" x="1893.6107" y="-287.4202" font-family="Times,serif" font-size="14.00" fill="#000000">packer/authenticated&#45;ami*</text>
</g>
<!-- packer/source&#45;ami*&#45;&gt;packer/authenticated&#45;ami* -->
<g id="edge34" class="edge">
<title>packer/source&#45;ami*&#45;&gt;packer/authenticated&#45;ami*</title>
<path fill="none" stroke="#000000" d="M1169.4907,-297.4169C1313.2037,-296.1673 1613.4616,-293.5563 1778.6175,-292.1201"/>
<polygon fill="#000000" stroke="#000000" points="1778.8417,-295.6184 1788.8109,-292.0315 1778.7808,-288.6187 1778.8417,-295.6184"/>
</g>
<!-- terraform/prometheus -->
<g id="node18" class="node">
<title>terraform/prometheus</title>
<ellipse fill="none" stroke="#000000" cx="1293.6044" cy="-406.1202" rx="88.2844" ry="18"/>
<text text-anchor="middle" x="1293.6044" y="-402.4202" font-family="Times,serif" font-size="14.00" fill="#000000">terraform/prometheus</text>
</g>
<!-- packer/source&#45;ami*&#45;&gt;terraform/prometheus -->
<g id="edge1" class="edge">
<title>packer/source&#45;ami*&#45;&gt;terraform/prometheus</title>
<path fill="none" stroke="#000000" d="M1143.962,-311.2184C1152.924,-314.8256 1161.7114,-319.3821 1169.2122,-325.1202 1192.1218,-342.6459 1182.0698,-361.9031 1205.2122,-379.1202 1210.3658,-382.9542 1216.069,-386.2494 1222.0239,-389.0805"/>
<polygon fill="#000000" stroke="#000000" points="1220.9757,-392.439 1231.5461,-393.1581 1223.7313,-386.0042 1220.9757,-392.439"/>
</g>
<!-- packer/ubuntu&#45;java*&#45;&gt;terraform/private -->
<g id="edge33" class="edge">
<title>packer/ubuntu&#45;java*&#45;&gt;terraform/private</title>
<path fill="none" stroke="#000000" d="M2178.828,-170.8876C2199.0378,-166.8602 2221.5893,-162.3661 2242.128,-158.2731"/>
<polygon fill="#000000" stroke="#000000" points="2242.9068,-161.6868 2252.0299,-156.2999 2241.5387,-154.8218 2242.9068,-161.6868"/>
</g>
<!-- terraform/vpc -->
<g id="node7" class="node">
<title>terraform/vpc</title>
<ellipse fill="none" stroke="#000000" cx="1088.6194" cy="-352.1202" rx="59.5901" ry="18"/>
<text text-anchor="middle" x="1088.6194" y="-348.4202" font-family="Times,serif" font-size="14.00" fill="#000000">terraform/vpc</text>
</g>
<!-- terraform/vpc&#45;&gt;terraform/bastion -->
<g id="edge29" class="edge">
<title>terraform/vpc&#45;&gt;terraform/bastion</title>
<path fill="none" stroke="#000000" d="M1130.9189,-339.3456C1143.4037,-335.2022 1156.9925,-330.3211 1169.2122,-325.1202 1199.2317,-312.3434 1231.8775,-295.1507 1256.1903,-281.6565"/>
<polygon fill="#000000" stroke="#000000" points="1258.0605,-284.6207 1265.0776,-276.6827 1254.6419,-278.5122 1258.0605,-284.6207"/>
</g>
<!-- terraform/vpc&#45;&gt;packer/vault&#45;ami* -->
<g id="edge15" class="edge">
<title>terraform/vpc&#45;&gt;packer/vault&#45;ami*</title>
<path fill="none" stroke="#000000" d="M1148.4606,-352.1202C1167.0616,-352.1202 1187.9438,-352.1202 1207.9465,-352.1202"/>
<polygon fill="#000000" stroke="#000000" points="1207.9943,-355.6203 1217.9943,-352.1202 1207.9943,-348.6203 1207.9943,-355.6203"/>
</g>
<!-- terraform/vpc&#45;&gt;terraform/prometheus -->
<g id="edge2" class="edge">
<title>terraform/vpc&#45;&gt;terraform/prometheus</title>
<path fill="none" stroke="#000000" d="M1133.858,-364.0376C1161.9445,-371.4365 1198.4767,-381.0603 1229.5156,-389.237"/>
<polygon fill="#000000" stroke="#000000" points="1228.8207,-392.6733 1239.3824,-391.8363 1230.6039,-385.9042 1228.8207,-392.6733"/>
</g>
<!-- terraform/users&#45;&gt;terraform/vpc -->
<g id="edge27" class="edge">
<title>terraform/users&#45;&gt;terraform/vpc</title>
<path fill="none" stroke="#000000" d="M970.2877,-344.3004C986.3927,-345.3646 1003.7745,-346.5133 1020.1273,-347.594"/>
<polygon fill="#000000" stroke="#000000" points="1019.9467,-351.0896 1030.1557,-348.2567 1020.4083,-344.1048 1019.9467,-351.0896"/>
</g>
<!-- terraform/bastion&#45;&gt;terraform/vault -->
<g id="edge31" class="edge">
<title>terraform/bastion&#45;&gt;terraform/vault</title>
<path fill="none" stroke="#000000" d="M1335.0213,-245.268C1349.8563,-239.9108 1366.6918,-233.7881 1381.9965,-228.1202 1399.2279,-221.7388 1418.0781,-214.6333 1434.7413,-208.3092"/>
<polygon fill="#000000" stroke="#000000" points="1436.1668,-211.5118 1444.2709,-204.6873 1433.6798,-204.9684 1436.1668,-211.5118"/>
</g>
<!-- terraform/services -->
<g id="node14" class="node">
<title>terraform/services</title>
<ellipse fill="none" stroke="#000000" cx="2491.0173" cy="-145.1202" rx="75.2868" ry="18"/>
<text text-anchor="middle" x="2491.0173" y="-141.4202" font-family="Times,serif" font-size="14.00" fill="#000000">terraform/services</text>
</g>
<!-- terraform/bastion&#45;&gt;terraform/services -->
<g id="edge11" class="edge">
<title>terraform/bastion&#45;&gt;terraform/services</title>
<path fill="none" stroke="#000000" d="M1344.3924,-272.9469C1460.821,-300.472 1755.6399,-359.471 1998.2514,-318.1202 2171.238,-288.6363 2364.3101,-204.8523 2448.2245,-165.7241"/>
<polygon fill="#000000" stroke="#000000" points="2449.8656,-168.8203 2457.4328,-161.4048 2446.8929,-162.4829 2449.8656,-168.8203"/>
</g>
<!-- terraform/private&#45;&gt;terraform/services -->
<g id="edge12" class="edge">
<title>terraform/private&#45;&gt;terraform/services</title>
<path fill="none" stroke="#000000" d="M2379.625,-145.1202C2388.0499,-145.1202 2396.7122,-145.1202 2405.3068,-145.1202"/>
<polygon fill="#000000" stroke="#000000" points="2405.3467,-148.6203 2415.3467,-145.1202 2405.3466,-141.6203 2405.3467,-148.6203"/>
</g>
<!-- packer/vault&#45;ami*&#45;&gt;terraform/vault -->
<g id="edge16" class="edge">
<title>packer/vault&#45;ami*&#45;&gt;terraform/vault</title>
<path fill="none" stroke="#000000" d="M1318.6677,-335.0448C1336.7455,-322.407 1361.4761,-304.4486 1381.9965,-287.1202 1409.4099,-263.9711 1438.6841,-235.1469 1458.4939,-214.9587"/>
<polygon fill="#000000" stroke="#000000" points="1461.1223,-217.2766 1465.5992,-207.674 1456.1112,-212.3889 1461.1223,-217.2766"/>
</g>
<!-- terraform/vault&#45;&gt;terraform/private -->
<g id="edge9" class="edge">
<title>terraform/vault&#45;&gt;terraform/private</title>
<path fill="none" stroke="#000000" d="M1540.1326,-182.1547C1601.6732,-174.038 1701.989,-161.8525 1788.97,-156.1202 1943.3422,-145.9465 2124.0374,-144.4695 2226.3975,-144.6014"/>
<polygon fill="#000000" stroke="#000000" points="2226.6558,-148.1018 2236.6623,-144.6204 2226.6688,-141.1018 2226.6558,-148.1018"/>
</g>
<!-- terraform/vault&#45;&gt;terraform/services -->
<g id="edge10" class="edge">
<title>terraform/vault&#45;&gt;terraform/services</title>
<path fill="none" stroke="#000000" d="M1521.1211,-175.6003C1593.3271,-149.9086 1753.7535,-99.1202 1893.6107,-99.1202 1893.6107,-99.1202 1893.6107,-99.1202 2117.4441,-99.1202 2234.2741,-99.1202 2264.1959,-100.0758 2379.624,-118.1202 2396.8805,-120.8178 2415.3987,-124.8396 2432.2848,-128.9605"/>
<polygon fill="#000000" stroke="#000000" points="2431.4667,-132.3636 2442.0166,-131.3889 2433.1616,-125.5718 2431.4667,-132.3636"/>
</g>
<!-- shell/root&#45;certificates -->
<g id="node16" class="node">
<title>shell/root&#45;certificates</title>
<ellipse fill="none" stroke="#000000" cx="1667.8276" cy="-222.1202" rx="85.2851" ry="18"/>
<text text-anchor="middle" x="1667.8276" y="-218.4202" font-family="Times,serif" font-size="14.00" fill="#000000">shell/root&#45;certificates</text>
</g>
<!-- terraform/vault&#45;&gt;shell/root&#45;certificates -->
<g id="edge30" class="edge">
<title>terraform/vault&#45;&gt;shell/root&#45;certificates</title>
<path fill="none" stroke="#000000" d="M1537.2401,-199.5914C1554.2757,-202.5303 1573.3675,-205.824 1591.5821,-208.9664"/>
<polygon fill="#000000" stroke="#000000" points="1591.143,-212.4423 1601.5925,-210.6934 1592.3331,-205.5442 1591.143,-212.4423"/>
</g>
<!-- terraform/security&#45;&gt;terraform/bastion -->
<g id="edge23" class="edge">
<title>terraform/security&#45;&gt;terraform/bastion</title>
<path fill="none" stroke="#000000" d="M1112.5349,-129.3873C1149.4105,-156.0116 1220.2008,-207.1225 1261.499,-236.94"/>
<polygon fill="#000000" stroke="#000000" points="1259.6847,-239.9469 1269.8411,-242.963 1263.7823,-234.2716 1259.6847,-239.9469"/>
</g>
<!-- terraform/security&#45;&gt;terraform/private -->
<g id="edge24" class="edge">
<title>terraform/security&#45;&gt;terraform/private</title>
<path fill="none" stroke="#000000" d="M1145.0465,-100.1629C1221.2266,-85.0889 1361.3766,-61.1202 1482.3408,-61.1202 1482.3408,-61.1202 1482.3408,-61.1202 1893.6107,-61.1202 2026.1693,-61.1202 2177.9078,-102.8929 2255.8547,-127.5228"/>
<polygon fill="#000000" stroke="#000000" points="2254.853,-130.877 2265.4438,-130.5844 2256.9821,-124.2086 2254.853,-130.877"/>
</g>
<!-- terraform/security&#45;&gt;terraform/vault -->
<g id="edge21" class="edge">
<title>terraform/security&#45;&gt;terraform/vault</title>
<path fill="none" stroke="#000000" d="M1163.0941,-113.6736C1223.1437,-116.4829 1309.2701,-124.052 1381.9965,-144.1202 1403.4896,-150.051 1426.172,-160.0919 1444.5236,-169.2823"/>
<polygon fill="#000000" stroke="#000000" points="1442.9317,-172.3992 1453.4276,-173.8436 1446.1233,-166.1691 1442.9317,-172.3992"/>
</g>
<!-- terraform/dns&#45;&gt;terraform/private -->
<g id="edge19" class="edge">
<title>terraform/dns&#45;&gt;terraform/private</title>
<path fill="none" stroke="#000000" d="M1128.9404,-442.4168C1151.2045,-449.2796 1179.4839,-457.2186 1205.2122,-462.1202 1326.8203,-485.2882 1358.5455,-490.1202 1482.3408,-490.1202 1482.3408,-490.1202 1482.3408,-490.1202 1893.6107,-490.1202 2091.9994,-490.1202 2245.9525,-253.7751 2293.1193,-172.3223"/>
<polygon fill="#000000" stroke="#000000" points="2296.4186,-173.6027 2298.3378,-163.1831 2290.3397,-170.1316 2296.4186,-173.6027"/>
</g>
<!-- terraform/dns&#45;&gt;terraform/vault -->
<g id="edge20" class="edge">
<title>terraform/dns&#45;&gt;terraform/vault</title>
<path fill="none" stroke="#000000" d="M1128.1757,-442.7025C1188.5301,-460.7682 1304.7293,-484.8093 1381.9965,-433.1202 1455.1095,-384.2101 1475.0096,-271.2229 1480.3803,-218.3554"/>
<polygon fill="#000000" stroke="#000000" points="1483.8723,-218.6023 1481.2961,-208.3254 1476.9013,-217.9657 1483.8723,-218.6023"/>
</g>
<!-- terraform/dns&#45;&gt;terraform/prometheus -->
<g id="edge37" class="edge">
<title>terraform/dns&#45;&gt;terraform/prometheus</title>
<path fill="none" stroke="#000000" d="M1144.3617,-422.8657C1163.3119,-420.7394 1184.9759,-418.3087 1205.8121,-415.9708"/>
<polygon fill="#000000" stroke="#000000" points="1206.4115,-419.4256 1215.9588,-414.8323 1205.6309,-412.4692 1206.4115,-419.4256"/>
</g>
<!-- shell/root&#45;certificates&#45;&gt;packer/authenticated&#45;ami* -->
<g id="edge32" class="edge">
<title>shell/root&#45;certificates&#45;&gt;packer/authenticated&#45;ami*</title>
<path fill="none" stroke="#000000" d="M1710.1605,-237.7429C1733.2971,-246.0414 1762.5452,-256.1447 1788.97,-264.1202 1799.9448,-267.4326 1811.6418,-270.7019 1823.091,-273.76"/>
<polygon fill="#000000" stroke="#000000" points="1822.5025,-277.2243 1833.0643,-276.3888 1824.2867,-270.4555 1822.5025,-277.2243"/>
</g>
<!-- shell/init&#45;vault -->
<g id="node21" class="node">
<title>shell/init&#45;vault</title>
<ellipse fill="none" stroke="#000000" cx="1893.6107" cy="-237.1202" rx="61.99" ry="18"/>
<text text-anchor="middle" x="1893.6107" y="-233.4202" font-family="Times,serif" font-size="14.00" fill="#000000">shell/init&#45;vault</text>
</g>
<!-- shell/root&#45;certificates&#45;&gt;shell/init&#45;vault -->
<g id="edge36" class="edge">
<title>shell/root&#45;certificates&#45;&gt;shell/init&#45;vault</title>
<path fill="none" stroke="#000000" d="M1749.3405,-227.5355C1773.4374,-229.1364 1799.6062,-230.875 1822.9577,-232.4263"/>
<polygon fill="#000000" stroke="#000000" points="1822.9135,-235.931 1833.1235,-233.1017 1823.3776,-228.9464 1822.9135,-235.931"/>
</g>
<!-- packer/authenticated&#45;ami*&#45;&gt;packer/ubuntu&#45;java* -->
<g id="edge35" class="edge">
<title>packer/authenticated&#45;ami*&#45;&gt;packer/ubuntu&#45;java*</title>
<path fill="none" stroke="#000000" d="M1961.2167,-277.3285C1973.7947,-273.7463 1986.6268,-269.3771 1998.2514,-264.1202 2031.3456,-249.1542 2065.2355,-225.1142 2088.3763,-207.1043"/>
<polygon fill="#000000" stroke="#000000" points="2090.7171,-209.7154 2096.3941,-200.7699 2086.3777,-204.2228 2090.7171,-209.7154"/>
</g>
<!-- @terraform/vpc -->
<g id="node19" class="node">
<title>@terraform/vpc</title>
<ellipse fill="none" stroke="#000000" cx="67.594" cy="-192.1202" rx="67.6881" ry="18"/>
<text text-anchor="middle" x="67.594" y="-188.4202" font-family="Times,serif" font-size="14.00" fill="#000000">@terraform/vpc</text>
</g>
<!-- @terraform/vpc&#45;&gt;@ansible/machines -->
<g id="edge3" class="edge">
<title>@terraform/vpc&#45;&gt;@ansible/machines</title>
<path fill="none" stroke="#000000" d="M135.4149,-192.1202C143.782,-192.1202 152.4346,-192.1202 161.0671,-192.1202"/>
<polygon fill="#000000" stroke="#000000" points="161.1733,-195.6203 171.1733,-192.1202 161.1733,-188.6203 161.1733,-195.6203"/>
</g>
<!-- terraform/vault&#45;volume&#45;&gt;terraform/vault -->
<g id="edge17" class="edge">
<title>terraform/vault&#45;volume&#45;&gt;terraform/vault</title>
<path fill="none" stroke="#000000" d="M803.9767,-218.292C958.4986,-211.8749 1266.7401,-199.0739 1408.2288,-193.198"/>
<polygon fill="#000000" stroke="#000000" points="1408.6866,-196.6821 1418.5328,-192.7701 1408.3961,-189.6881 1408.6866,-196.6821"/>
</g>
</g>
</svg>
