<?xml version="1.0" encoding="UTF-8" standalone="no"?>
<!DOCTYPE svg PUBLIC "-//W3C//DTD SVG 1.1//EN"
 "http://www.w3.org/Graphics/SVG/1.1/DTD/svg11.dtd">
<!-- Generated by graphviz version 2.40.1 (20161225.0304)
 -->
<!-- Title: G Pages: 1 -->
<svg width="597pt" height="44pt"
 viewBox="0.00 0.00 597.35 44.00" xmlns="http://www.w3.org/2000/svg" xmlns:xlink="http://www.w3.org/1999/xlink">
<g id="graph0" class="graph" transform="scale(1 1) rotate(0) translate(4 40)">
<title>G</title>
<polygon fill="#ffffff" stroke="transparent" points="-4,4 -4,-40 593.3541,-40 593.3541,4 -4,4"/>
<!-- @vagrant/devbox -->
<g id="node1" class="node">
<title>@vagrant/devbox</title>
<ellipse fill="none" stroke="#000000" cx="73.4435" cy="-18" rx="73.387" ry="18"/>
<text text-anchor="middle" x="73.4435" y="-14.3" font-family="Times,serif" font-size="14.00" fill="#000000">@vagrant/devbox</text>
</g>
<!-- @ansible/workers -->
<g id="node2" class="node">
<title>@ansible/workers</title>
<ellipse fill="none" stroke="#000000" cx="257.6303" cy="-18" rx="74.9875" ry="18"/>
<text text-anchor="middle" x="257.6303" y="-14.3" font-family="Times,serif" font-size="14.00" fill="#000000">@ansible/workers</text>
</g>
<!-- @vagrant/devbox&#45;&gt;@ansible/workers -->
<g id="edge1" class="edge">
<title>@vagrant/devbox&#45;&gt;@ansible/workers</title>
<path fill="none" stroke="#000000" d="M147.0331,-18C155.3678,-18 163.9135,-18 172.3815,-18"/>
<polygon fill="#000000" stroke="#000000" points="172.6528,-21.5001 182.6528,-18 172.6527,-14.5001 172.6528,-21.5001"/>
</g>
<!-- @ansible/workers&#45;provision -->
<g id="node3" class="node">
<title>@ansible/workers&#45;provision</title>
<ellipse fill="none" stroke="#000000" cx="478.8639" cy="-18" rx="110.4804" ry="18"/>
<text text-anchor="middle" x="478.8639" y="-14.3" font-family="Times,serif" font-size="14.00" fill="#000000">@ansible/workers&#45;provision</text>
</g>
<!-- @ansible/workers&#45;&gt;@ansible/workers&#45;provision -->
<g id="edge2" class="edge">
<title>@ansible/workers&#45;&gt;@ansible/workers&#45;provision</title>
<path fill="none" stroke="#000000" d="M332.5299,-18C340.819,-18 349.4078,-18 358.0807,-18"/>
<polygon fill="#000000" stroke="#000000" points="358.2877,-21.5001 368.2876,-18 358.2876,-14.5001 358.2877,-21.5001"/>
</g>
</g>
</svg>
