<?xml version="1.0" encoding="UTF-8" standalone="no"?>
<!DOCTYPE svg PUBLIC "-//W3C//DTD SVG 1.1//EN"
 "http://www.w3.org/Graphics/SVG/1.1/DTD/svg11.dtd">
<!-- Generated by graphviz version 2.40.1 (20161225.0304)
 -->
<!-- Title: G Pages: 1 -->
<svg width="229pt" height="188pt"
 viewBox="0.00 0.00 228.98 188.00" xmlns="http://www.w3.org/2000/svg" xmlns:xlink="http://www.w3.org/1999/xlink">
<g id="graph0" class="graph" transform="scale(1 1) rotate(0) translate(4 184)">
<title>G</title>
<polygon fill="#ffffff" stroke="transparent" points="-4,4 -4,-184 224.9804,-184 224.9804,4 -4,4"/>
<!-- @vagrant/devbox -->
<g id="node1" class="node">
<title>@vagrant/devbox</title>
<ellipse fill="none" stroke="#000000" cx="110.4902" cy="-162" rx="73.387" ry="18"/>
<text text-anchor="middle" x="110.4902" y="-158.3" font-family="Times,serif" font-size="14.00" fill="#000000">@vagrant/devbox</text>
</g>
<!-- @ansible/workers -->
<g id="node2" class="node">
<title>@ansible/workers</title>
<ellipse fill="none" stroke="#000000" cx="110.4902" cy="-90" rx="74.9875" ry="18"/>
<text text-anchor="middle" x="110.4902" y="-86.3" font-family="Times,serif" font-size="14.00" fill="#000000">@ansible/workers</text>
</g>
<!-- @vagrant/devbox&#45;&gt;@ansible/workers -->
<g id="edge1" class="edge">
<title>@vagrant/devbox&#45;&gt;@ansible/workers</title>
<path fill="none" stroke="#000000" d="M110.4902,-143.8314C110.4902,-136.131 110.4902,-126.9743 110.4902,-118.4166"/>
<polygon fill="#000000" stroke="#000000" points="113.9903,-118.4132 110.4902,-108.4133 106.9903,-118.4133 113.9903,-118.4132"/>
</g>
<!-- @ansible/workers&#45;provision -->
<g id="node3" class="node">
<title>@ansible/workers&#45;provision</title>
<ellipse fill="none" stroke="#000000" cx="110.4902" cy="-18" rx="110.4804" ry="18"/>
<text text-anchor="middle" x="110.4902" y="-14.3" font-family="Times,serif" font-size="14.00" fill="#000000">@ansible/workers&#45;provision</text>
</g>
<!-- @ansible/workers&#45;&gt;@ansible/workers&#45;provision -->
<g id="edge2" class="edge">
<title>@ansible/workers&#45;&gt;@ansible/workers&#45;provision</title>
<path fill="none" stroke="#000000" d="M110.4902,-71.8314C110.4902,-64.131 110.4902,-54.9743 110.4902,-46.4166"/>
<polygon fill="#000000" stroke="#000000" points="113.9903,-46.4132 110.4902,-36.4133 106.9903,-46.4133 113.9903,-46.4132"/>
</g>
</g>
</svg>
