<?xml version="1.0" encoding="UTF-8" standalone="no"?>
<!DOCTYPE svg PUBLIC "-//W3C//DTD SVG 1.1//EN"
 "http://www.w3.org/Graphics/SVG/1.1/DTD/svg11.dtd">
<!-- Generated by graphviz version 2.40.1 (20161225.0304)
 -->
<!-- Title: G Pages: 1 -->
<svg width="603pt" height="44pt"
 viewBox="0.00 0.00 603.46 44.00" xmlns="http://www.w3.org/2000/svg" xmlns:xlink="http://www.w3.org/1999/xlink">
<g id="graph0" class="graph" transform="scale(1 1) rotate(0) translate(4 40)">
<title>G</title>
<polygon fill="#ffffff" stroke="transparent" points="-4,4 -4,-40 599.4567,-40 599.4567,4 -4,4"/>
<!-- ansible/machines -->
<g id="node1" class="node">
<title>ansible/machines</title>
<ellipse fill="none" stroke="#000000" cx="71.4937" cy="-18" rx="71.4873" ry="18"/>
<text text-anchor="middle" x="71.4937" y="-14.3" font-family="Times,serif" font-size="14.00" fill="#000000">ansible/machines</text>
</g>
<!-- gradle/app -->
<g id="node2" class="node">
<title>gradle/app</title>
<ellipse fill="none" stroke="#000000" cx="227.083" cy="-18" rx="48.1917" ry="18"/>
<text text-anchor="middle" x="227.083" y="-14.3" font-family="Times,serif" font-size="14.00" fill="#000000">gradle/app</text>
</g>
<!-- ansible/machines&#45;&gt;gradle/app -->
<g id="edge1" class="edge">
<title>ansible/machines&#45;&gt;gradle/app</title>
<path fill="none" stroke="#000000" d="M143.3677,-18C151.7655,-18 160.2558,-18 168.4442,-18"/>
<polygon fill="#000000" stroke="#000000" points="168.625,-21.5001 178.625,-18 168.625,-14.5001 168.625,-21.5001"/>
</g>
<!-- ansible/deploy -->
<g id="node3" class="node">
<title>ansible/deploy</title>
<ellipse fill="none" stroke="#000000" cx="372.9233" cy="-18" rx="61.99" ry="18"/>
<text text-anchor="middle" x="372.9233" y="-14.3" font-family="Times,serif" font-size="14.00" fill="#000000">ansible/deploy</text>
</g>
<!-- gradle/app&#45;&gt;ansible/deploy -->
<g id="edge2" class="edge">
<title>gradle/app&#45;&gt;ansible/deploy</title>
<path fill="none" stroke="#000000" d="M275.2408,-18C283.4703,-18 292.1772,-18 300.8678,-18"/>
<polygon fill="#000000" stroke="#000000" points="301.0326,-21.5001 311.0326,-18 301.0326,-14.5001 301.0326,-21.5001"/>
</g>
<!-- ansible/release -->
<g id="node4" class="node">
<title>ansible/release</title>
<ellipse fill="none" stroke="#000000" cx="533.0623" cy="-18" rx="62.2891" ry="18"/>
<text text-anchor="middle" x="533.0623" y="-14.3" font-family="Times,serif" font-size="14.00" fill="#000000">ansible/release</text>
</g>
<!-- ansible/deploy&#45;&gt;ansible/release -->
<g id="edge3" class="edge">
<title>ansible/deploy&#45;&gt;ansible/release</title>
<path fill="none" stroke="#000000" d="M434.8372,-18C443.1593,-18 451.7577,-18 460.2464,-18"/>
<polygon fill="#000000" stroke="#000000" points="460.5205,-21.5001 470.5204,-18 460.5204,-14.5001 460.5205,-21.5001"/>
</g>
</g>
</svg>
