<?xml version="1.0" encoding="UTF-8" standalone="no"?>
<!DOCTYPE svg PUBLIC "-//W3C//DTD SVG 1.1//EN"
 "http://www.w3.org/Graphics/SVG/1.1/DTD/svg11.dtd">
<!-- Generated by graphviz version 2.40.1 (20161225.0304)
 -->
<!-- Title: G Pages: 1 -->
<svg width="818pt" height="44pt"
 viewBox="0.00 0.00 817.94 44.00" xmlns="http://www.w3.org/2000/svg" xmlns:xlink="http://www.w3.org/1999/xlink">
<g id="graph0" class="graph" transform="scale(1 1) rotate(0) translate(4 40)">
<title>G</title>
<polygon fill="#ffffff" stroke="transparent" points="-4,4 -4,-40 813.9377,-40 813.9377,4 -4,4"/>
<!-- @ansible/machines -->
<g id="node1" class="node">
<title>@ansible/machines</title>
<ellipse fill="none" stroke="#000000" cx="79.9429" cy="-18" rx="79.8859" ry="18"/>
<text text-anchor="middle" x="79.9429" y="-14.3" font-family="Times,serif" font-size="14.00" fill="#000000">@ansible/machines</text>
</g>
<!-- @ansible/provision&#45;workers -->
<g id="node2" class="node">
<title>@ansible/provision&#45;workers</title>
<ellipse fill="none" stroke="#000000" cx="306.376" cy="-18" rx="110.4804" ry="18"/>
<text text-anchor="middle" x="306.376" y="-14.3" font-family="Times,serif" font-size="14.00" fill="#000000">@ansible/provision&#45;workers</text>
</g>
<!-- @ansible/machines&#45;&gt;@ansible/provision&#45;workers -->
<g id="edge1" class="edge">
<title>@ansible/machines&#45;&gt;@ansible/provision&#45;workers</title>
<path fill="none" stroke="#000000" d="M160.0934,-18C168.4145,-18 176.9969,-18 185.6379,-18"/>
<polygon fill="#000000" stroke="#000000" points="185.7966,-21.5001 195.7966,-18 185.7965,-14.5001 185.7966,-21.5001"/>
</g>
<!-- packer/source&#45;ami -->
<g id="node3" class="node">
<title>packer/source&#45;ami</title>
<ellipse fill="none" stroke="#000000" cx="528.9095" cy="-18" rx="76.0865" ry="18"/>
<text text-anchor="middle" x="528.9095" y="-14.3" font-family="Times,serif" font-size="14.00" fill="#000000">packer/source&#45;ami</text>
</g>
<!-- @ansible/provision&#45;workers&#45;&gt;packer/source&#45;ami -->
<g id="edge2" class="edge">
<title>@ansible/provision&#45;workers&#45;&gt;packer/source&#45;ami</title>
<path fill="none" stroke="#000000" d="M416.9908,-18C425.5989,-18 434.2121,-18 442.6245,-18"/>
<polygon fill="#000000" stroke="#000000" points="442.7724,-21.5001 452.7723,-18 442.7723,-14.5001 442.7724,-21.5001"/>
</g>
<!-- terraform/appservers -->
<g id="node4" class="node">
<title>terraform/appservers</title>
<ellipse fill="none" stroke="#000000" cx="725.4452" cy="-18" rx="84.485" ry="18"/>
<text text-anchor="middle" x="725.4452" y="-14.3" font-family="Times,serif" font-size="14.00" fill="#000000">terraform/appservers</text>
</g>
<!-- packer/source&#45;ami&#45;&gt;terraform/appservers -->
<g id="edge3" class="edge">
<title>packer/source&#45;ami&#45;&gt;terraform/appservers</title>
<path fill="none" stroke="#000000" d="M605.1766,-18C613.5524,-18 622.1529,-18 630.7175,-18"/>
<polygon fill="#000000" stroke="#000000" points="630.7395,-21.5001 640.7395,-18 630.7395,-14.5001 630.7395,-21.5001"/>
</g>
</g>
</svg>
